<?xml version="1.0" encoding="UTF-8"?> <!-- Generator: Adobe Illustrator 22.1.0, SVG Export Plug-In . SVG Version: 6.00 Build 0) --> <svg xmlns="http://www.w3.org/2000/svg" xmlns:xlink="http://www.w3.org/1999/xlink" id="Layer_1" x="0px" y="0px" viewBox="0 0 300 300" style="enable-background:new 0 0 300 300;" xml:space="preserve"> <style type="text/css"> .st0{fill:#3393A3;} .st1{clip-path:url(#SVGID_2_);} .st2{clip-path:url(#SVGID_4_);} .st3{fill:none;} .st4{fill:#28C8E5;} .st5{clip-path:url(#SVGID_6_);} .st6{clip-path:url(#SVGID_8_);} </style> <title>Curriculum_1</title> <g id="_02_Curriculm"> <g id="Bracket"> <g> <polygon class="st0" points="276,186 256.8,186 256.8,182 272,182 272,158.5 279.5,150 272,141.5 272,118 256.8,118 256.8,114 276,114 276,140 284.8,150 276,160 "></polygon> </g> <g> <polygon class="st0" points="43.1,186 24,186 24,160 15.2,150 24,140 24,114 43.1,114 43.1,118 28,118 28,141.5 20.5,150 28,158.5 28,182 43.1,182 "></polygon> </g> </g> <g id="Fill"> <g> <defs> <rect id="SVGID_1_" x="64" y="52" width="172" height="106.2"></rect> </defs> <clipPath id="SVGID_2_"> <use xlink:href="#SVGID_1_" style="overflow:visible;"></use> </clipPath> <g class="st1"> <g> <g> <defs> <path id="SVGID_3_" d="M216.6,64.5H84.2c-3.5,0-6.2,2.8-6.2,6.3V161c0,3.4,2.8,6.2,6.2,6.2h132.4c3.4,0,6.2-2.8,6.2-6.2V70.7 C222.9,67.3,220.1,64.5,216.6,64.5z M213.6,149.6H87.2V77.4h126.4L213.6,149.6z"></path> </defs> <clipPath id="SVGID_4_"> <use xlink:href="#SVGID_3_" style="overflow:visible;"></use> </clipPath> <g class="st2"> <rect x="168.8" y="149.2" transform="matrix(0.7071 -0.7071 0.7071 0.7071 -97.5749 182.366)" class="st3" width="5.2" height="119.5"></rect> <rect x="168.8" y="149.2" transform="matrix(0.7071 -0.7071 0.7071 0.7071 -97.5749 182.366)" class="st3" width="5.2" height="119.5"></rect> <rect x="171.7" y="148" transform="matrix(0.7071 -0.7071 0.7071 0.7071 -96.3587 182.8698)" class="st4" width="1.7" height="119.5"></rect> <rect x="169" y="149.8" transform="matrix(0.7071 -0.7071 0.7071 0.7071 -98.1831 182.1141)" class="st3" width="3.4" height="119.5"></rect> </g> <g class="st2"> <rect x="172.4" y="145.5" transform="matrix(0.7071 -0.7071 0.7071 0.7071 -93.9263 183.8773)" class="st3" width="5.2" height="119.5"></rect> <rect x="172.4" y="145.5" transform="matrix(0.7071 -0.7071 0.7071 0.7071 -93.9263 183.8773)" class="st3" width="5.2" height="119.5"></rect> <rect x="175.4" y="144.3" transform="matrix(0.7071 -0.7071 0.7071 0.7071 -92.71 184.3811)" class="st4" width="1.7" height="119.5"></rect> <rect x="172.7" y="146.2" transform="matrix(0.7071 -0.7071 0.7071 0.7071 -94.5344 183.6255)" class="st3" width="3.4" height="119.5"></rect> </g> <g class="st2"> <rect x="176.1" y="141.9" transform="matrix(0.7071 -0.7071 0.7071 0.7071 -90.2776 185.3887)" class="st3" width="5.2" height="119.5"></rect> <rect x="176.1" y="141.9" transform="matrix(0.7071 -0.7071 0.7071 0.7071 -90.2776 185.3887)" class="st3" width="5.2" height="119.5"></rect> <rect x="179" y="140.7" transform="matrix(0.7071 -0.7071 0.7071 0.7071 -89.0614 185.8925)" class="st4" width="1.7" height="119.5"></rect> <rect x="176.3" y="142.5" transform="matrix(0.7071 -0.7071 0.7071 0.7071 -90.8857 185.1368)" class="st3" width="3.4" height="119.5"></rect> </g> <g class="st2"> <rect x="179.7" y="138.3" transform="matrix(0.7071 -0.7071 0.7071 0.7071 -86.6289 186.9)" class="st3" width="5.2" height="119.5"></rect> <rect x="179.7" y="138.3" transform="matrix(0.7071 -0.7071 0.7071 0.7071 -86.6289 186.9)" class="st3" width="5.2" height="119.5"></rect> <rect x="182.7" y="137" transform="matrix(0.7071 -0.7071 0.7071 0.7071 -85.4127 187.4038)" class="st4" width="1.7" height="119.5"></rect> <rect x="180" y="138.9" transform="matrix(0.7071 -0.7071 0.7071 0.7071 -87.237 186.6481)" class="st3" width="3.4" height="119.5"></rect> </g> <g class="st2"> <rect x="183.4" y="134.6" transform="matrix(0.7071 -0.7071 0.7071 0.7071 -82.9803 188.4113)" class="st3" width="5.2" height="119.5"></rect> <rect x="183.4" y="134.6" transform="matrix(0.7071 -0.7071 0.7071 0.7071 -82.9803 188.4113)" class="st3" width="5.2" height="119.5"></rect> <rect x="186.3" y="133.4" transform="matrix(0.7071 -0.7071 0.7071 0.7071 -81.764 188.9151)" class="st4" width="1.7" height="119.5"></rect> <rect x="183.6" y="135.2" transform="matrix(0.7071 -0.7071 0.7071 0.7071 -83.5884 188.1595)" class="st3" width="3.4" height="119.5"></rect> </g> <g class="st2"> <rect x="187" y="131" transform="matrix(0.7071 -0.7071 0.7071 0.7071 -79.3316 189.9227)" class="st3" width="5.2" height="119.5"></rect> <rect x="187" y="131" transform="matrix(0.7071 -0.7071 0.7071 0.7071 -79.3316 189.9227)" class="st3" width="5.2" height="119.5"></rect> <rect x="189.9" y="129.7" transform="matrix(0.7071 -0.7071 0.7071 0.7071 -78.1154 190.4265)" class="st4" width="1.7" height="119.5"></rect> <rect x="187.3" y="131.6" transform="matrix(0.7071 -0.7071 0.7071 0.7071 -79.9397 189.6708)" class="st3" width="3.4" height="119.5"></rect> </g> <g class="st2"> <rect x="190.7" y="127.3" transform="matrix(0.7071 -0.7071 0.7071 0.7071 -75.6829 191.434)" class="st3" width="5.2" height="119.5"></rect> <rect x="190.7" y="127.3" transform="matrix(0.7071 -0.7071 0.7071 0.7071 -75.6829 191.434)" class="st3" width="5.2" height="119.5"></rect> <rect x="193.6" y="126.1" transform="matrix(0.7071 -0.7071 0.7071 0.7071 -74.4667 191.9378)" class="st4" width="1.7" height="119.5"></rect> <rect x="190.9" y="127.9" transform="matrix(0.7071 -0.7071 0.7071 0.7071 -76.291 191.1821)" class="st3" width="3.4" height="119.5"></rect> </g> <g class="st2"> <rect x="194.3" y="123.7" transform="matrix(0.7071 -0.7071 0.7071 0.7071 -72.0342 192.9453)" class="st3" width="5.2" height="119.5"></rect> <rect x="194.3" y="123.7" transform="matrix(0.7071 -0.7071 0.7071 0.7071 -72.0342 192.9453)" class="st3" width="5.2" height="119.5"></rect> <rect x="197.2" y="122.4" transform="matrix(0.7071 -0.7071 0.7071 0.7071 -70.818 193.4491)" class="st4" width="1.7" height="119.5"></rect> <rect x="194.6" y="124.3" transform="matrix(0.7071 -0.7071 0.7071 0.7071 -72.6423 192.6934)" class="st3" width="3.4" height="119.5"></rect> </g> <g class="st2"> <rect x="198" y="120" transform="matrix(0.7071 -0.7071 0.7071 0.7071 -68.3856 194.4567)" class="st3" width="5.2" height="119.5"></rect> <rect x="198" y="120" transform="matrix(0.7071 -0.7071 0.7071 0.7071 -68.3856 194.4567)" class="st3" width="5.2" height="119.5"></rect> <rect x="200.9" y="118.8" transform="matrix(0.7071 -0.7071 0.7071 0.7071 -67.1693 194.9604)" class="st4" width="1.7" height="119.5"></rect> <rect x="198.2" y="120.6" transform="matrix(0.7071 -0.7071 0.7071 0.7071 -68.9937 194.2048)" class="st3" width="3.4" height="119.5"></rect> </g> <g class="st2"> <rect x="201.6" y="116.4" transform="matrix(0.7071 -0.7071 0.7071 0.7071 -64.7369 195.968)" class="st3" width="5.2" height="119.5"></rect> <rect x="201.6" y="116.4" transform="matrix(0.7071 -0.7071 0.7071 0.7071 -64.7369 195.968)" class="st3" width="5.2" height="119.5"></rect> <rect x="204.5" y="115.1" transform="matrix(0.7071 -0.7071 0.7071 0.7071 -63.5207 196.4718)" class="st4" width="1.7" height="119.5"></rect> <rect x="201.9" y="117" transform="matrix(0.7071 -0.7071 0.7071 0.7071 -65.345 195.7161)" class="st3" width="3.4" height="119.5"></rect> </g> <g class="st2"> <rect x="205.3" y="112.7" transform="matrix(0.7071 -0.7071 0.7071 0.7071 -61.0882 197.4793)" class="st3" width="5.2" height="119.5"></rect> <rect x="205.3" y="112.7" transform="matrix(0.7071 -0.7071 0.7071 0.7071 -61.0882 197.4793)" class="st3" width="5.2" height="119.5"></rect> <rect x="208.2" y="111.5" transform="matrix(0.7071 -0.7071 0.7071 0.7071 -59.872 197.9831)" class="st4" width="1.7" height="119.5"></rect> <rect x="205.5" y="113.3" transform="matrix(0.7071 -0.7071 0.7071 0.7071 -61.6963 197.2274)" class="st3" width="3.4" height="119.5"></rect> </g> <g class="st2"> <rect x="208.9" y="109.1" transform="matrix(0.7071 -0.7071 0.7071 0.7071 -57.4396 198.9906)" class="st3" width="5.2" height="119.5"></rect> <rect x="208.9" y="109.1" transform="matrix(0.7071 -0.7071 0.7071 0.7071 -57.4396 198.9906)" class="st3" width="5.2" height="119.5"></rect> <rect x="211.8" y="107.8" transform="matrix(0.7071 -0.7071 0.7071 0.7071 -56.2233 199.4944)" class="st4" width="1.7" height="119.5"></rect> <rect x="209.2" y="109.7" transform="matrix(0.7071 -0.7071 0.7071 0.7071 -58.0477 198.7388)" class="st3" width="3.4" height="119.5"></rect> </g> <g class="st2"> <rect x="212.6" y="105.4" transform="matrix(0.7071 -0.7071 0.7071 0.7071 -53.7909 200.502)" class="st3" width="5.2" height="119.5"></rect> <rect x="212.6" y="105.4" transform="matrix(0.7071 -0.7071 0.7071 0.7071 -53.7909 200.502)" class="st3" width="5.2" height="119.5"></rect> <rect x="215.5" y="104.2" transform="matrix(0.7071 -0.7071 0.7071 0.7071 -52.5747 201.0058)" class="st4" width="1.7" height="119.5"></rect> <rect x="212.8" y="106" transform="matrix(0.7071 -0.7071 0.7071 0.7071 -54.399 200.2501)" class="st3" width="3.4" height="119.5"></rect> </g> <g class="st2"> <rect x="216.2" y="101.8" transform="matrix(0.7071 -0.7071 0.7071 0.7071 -50.1422 202.0133)" class="st3" width="5.2" height="119.5"></rect> <rect x="216.2" y="101.8" transform="matrix(0.7071 -0.7071 0.7071 0.7071 -50.1422 202.0133)" class="st3" width="5.2" height="119.5"></rect> <rect x="219.1" y="100.5" transform="matrix(0.7071 -0.7071 0.7071 0.7071 -48.926 202.5171)" class="st4" width="1.7" height="119.5"></rect> <rect x="216.5" y="102.4" transform="matrix(0.7071 -0.7071 0.7071 0.7071 -50.7503 201.7614)" class="st3" width="3.4" height="119.5"></rect> </g> <g class="st2"> <rect x="219.8" y="98.1" transform="matrix(0.7071 -0.7071 0.7071 0.7071 -46.4935 203.5246)" class="st3" width="5.2" height="119.5"></rect> <rect x="219.8" y="98.1" transform="matrix(0.7071 -0.7071 0.7071 0.7071 -46.4935 203.5246)" class="st3" width="5.2" height="119.5"></rect> <rect x="222.8" y="96.9" transform="matrix(0.7071 -0.7071 0.7071 0.7071 -45.2773 204.0284)" class="st4" width="1.7" height="119.5"></rect> <rect x="220.1" y="98.7" transform="matrix(0.7071 -0.7071 0.7071 0.7071 -47.1017 203.2728)" class="st3" width="3.4" height="119.5"></rect> </g> <g class="st2"> <rect x="223.5" y="94.5" transform="matrix(0.7071 -0.7071 0.7071 0.7071 -42.8449 205.036)" class="st3" width="5.2" height="119.5"></rect> <rect x="223.5" y="94.5" transform="matrix(0.7071 -0.7071 0.7071 0.7071 -42.8449 205.036)" class="st3" width="5.2" height="119.5"></rect> <rect x="226.4" y="93.3" transform="matrix(0.7071 -0.7071 0.7071 0.7071 -41.6286 205.5397)" class="st4" width="1.7" height="119.5"></rect> <rect x="223.7" y="95.1" transform="matrix(0.7071 -0.7071 0.7071 0.7071 -43.453 204.7841)" class="st3" width="3.4" height="119.5"></rect> </g> <g class="st2"> <rect x="227.1" y="90.8" transform="matrix(0.7071 -0.7071 0.7071 0.7071 -39.1962 206.5473)" class="st3" width="5.2" height="119.5"></rect> <rect x="227.1" y="90.8" transform="matrix(0.7071 -0.7071 0.7071 0.7071 -39.1962 206.5473)" class="st3" width="5.2" height="119.5"></rect> <rect x="230.1" y="89.6" transform="matrix(0.7071 -0.7071 0.7071 0.7071 -37.98 207.0511)" class="st4" width="1.7" height="119.5"></rect> <rect x="227.4" y="91.4" transform="matrix(0.7071 -0.7071 0.7071 0.7071 -39.8043 206.2954)" class="st3" width="3.4" height="119.5"></rect> </g> <g class="st2"> <rect x="230.8" y="87.2" transform="matrix(0.7071 -0.7071 0.7071 0.7071 -35.5475 208.0586)" class="st3" width="5.2" height="119.5"></rect> <rect x="230.8" y="87.2" transform="matrix(0.7071 -0.7071 0.7071 0.7071 -35.5475 208.0586)" class="st3" width="5.2" height="119.5"></rect> <rect x="233.7" y="86" transform="matrix(0.7071 -0.7071 0.7071 0.7071 -34.3313 208.5624)" class="st4" width="1.7" height="119.5"></rect> <rect x="231" y="87.8" transform="matrix(0.7071 -0.7071 0.7071 0.7071 -36.1556 207.8067)" class="st3" width="3.4" height="119.5"></rect> </g> <g class="st2"> <rect x="234.4" y="83.5" transform="matrix(0.7071 -0.7071 0.7071 0.7071 -31.8989 209.5699)" class="st3" width="5.2" height="119.5"></rect> <rect x="234.4" y="83.5" transform="matrix(0.7071 -0.7071 0.7071 0.7071 -31.8989 209.5699)" class="st3" width="5.2" height="119.5"></rect> <rect x="237.4" y="82.3" transform="matrix(0.7071 -0.7071 0.7071 0.7071 -30.6826 210.0737)" class="st4" width="1.7" height="119.5"></rect> <rect x="234.7" y="84.1" transform="matrix(0.7071 -0.7071 0.7071 0.7071 -32.507 209.3181)" class="st3" width="3.4" height="119.5"></rect> </g> <g class="st2"> <rect x="238.1" y="79.9" transform="matrix(0.7071 -0.7071 0.7071 0.7071 -28.2502 211.0813)" class="st3" width="5.2" height="119.5"></rect> <rect x="238.1" y="79.9" transform="matrix(0.7071 -0.7071 0.7071 0.7071 -28.2502 211.0813)" class="st3" width="5.2" height="119.5"></rect> <rect x="241" y="78.7" transform="matrix(0.7071 -0.7071 0.7071 0.7071 -27.034 211.5851)" class="st4" width="1.7" height="119.5"></rect> <rect x="238.3" y="80.5" transform="matrix(0.7071 -0.7071 0.7071 0.7071 -28.8583 210.8294)" class="st3" width="3.4" height="119.5"></rect> </g> <g class="st2"> <rect x="241.7" y="76.2" transform="matrix(0.7071 -0.7071 0.7071 0.7071 -24.6015 212.5926)" class="st3" width="5.2" height="119.5"></rect> <rect x="241.7" y="76.2" transform="matrix(0.7071 -0.7071 0.7071 0.7071 -24.6015 212.5926)" class="st3" width="5.2" height="119.5"></rect> <rect x="244.7" y="75" transform="matrix(0.7071 -0.7071 0.7071 0.7071 -23.3853 213.0964)" class="st4" width="1.7" height="119.5"></rect> <rect x="242" y="76.8" transform="matrix(0.7071 -0.7071 0.7071 0.7071 -25.2096 212.3407)" class="st3" width="3.4" height="119.5"></rect> </g> <g class="st2"> <rect x="245.4" y="72.6" transform="matrix(0.7071 -0.7071 0.7071 0.7071 -20.9528 214.1039)" class="st3" width="5.2" height="119.5"></rect> <rect x="245.4" y="72.6" transform="matrix(0.7071 -0.7071 0.7071 0.7071 -20.9528 214.1039)" class="st3" width="5.2" height="119.5"></rect> <rect x="248.3" y="71.4" transform="matrix(0.7071 -0.7071 0.7071 0.7071 -19.7366 214.6077)" class="st4" width="1.7" height="119.5"></rect> <rect x="245.6" y="73.2" transform="matrix(0.7071 -0.7071 0.7071 0.7071 -21.561 213.8521)" class="st3" width="3.4" height="119.5"></rect> </g> <g class="st2"> <rect x="249" y="68.9" transform="matrix(0.7071 -0.7071 0.7071 0.7071 -17.3042 215.6153)" class="st3" width="5.2" height="119.5"></rect> <rect x="249" y="68.9" transform="matrix(0.7071 -0.7071 0.7071 0.7071 -17.3042 215.6153)" class="st3" width="5.2" height="119.5"></rect> <rect x="252" y="67.7" transform="matrix(0.7071 -0.7071 0.7071 0.7071 -16.0879 216.119)" class="st4" width="1.7" height="119.5"></rect> <rect x="249.3" y="69.5" transform="matrix(0.7071 -0.7071 0.7071 0.7071 -17.9123 215.3634)" class="st3" width="3.4" height="119.5"></rect> </g> <g class="st2"> <rect x="252.7" y="65.3" transform="matrix(0.7071 -0.7071 0.7071 0.7071 -13.6555 217.1266)" class="st3" width="5.2" height="119.5"></rect> <rect x="252.7" y="65.3" transform="matrix(0.7071 -0.7071 0.7071 0.7071 -13.6555 217.1266)" class="st3" width="5.2" height="119.5"></rect> <rect x="255.6" y="64.1" transform="matrix(0.7071 -0.7071 0.7071 0.7071 -12.4393 217.6304)" class="st4" width="1.7" height="119.5"></rect> <rect x="252.9" y="65.9" transform="matrix(0.7071 -0.7071 0.7071 0.7071 -14.2636 216.8747)" class="st3" width="3.4" height="119.5"></rect> </g> <g class="st2"> <rect x="256.3" y="61.6" transform="matrix(0.7071 -0.7071 0.7071 0.7071 -10.0068 218.6379)" class="st3" width="5.2" height="119.5"></rect> <rect x="256.3" y="61.6" transform="matrix(0.7071 -0.7071 0.7071 0.7071 -10.0068 218.6379)" class="st3" width="5.2" height="119.5"></rect> <rect x="259.3" y="60.4" transform="matrix(0.7071 -0.7071 0.7071 0.7071 -8.7906 219.1417)" class="st4" width="1.7" height="119.5"></rect> <rect x="256.6" y="62.2" transform="matrix(0.7071 -0.7071 0.7071 0.7071 -10.6149 218.386)" class="st3" width="3.4" height="119.5"></rect> </g> <g class="st2"> <rect x="260" y="58" transform="matrix(0.7071 -0.7071 0.7071 0.7071 -6.3582 220.1492)" class="st3" width="5.2" height="119.5"></rect> <rect x="260" y="58" transform="matrix(0.7071 -0.7071 0.7071 0.7071 -6.3582 220.1492)" class="st3" width="5.2" height="119.5"></rect> <rect x="262.9" y="56.8" transform="matrix(0.7071 -0.7071 0.7071 0.7071 -5.1419 220.653)" class="st4" width="1.7" height="119.5"></rect> <rect x="260.2" y="58.6" transform="matrix(0.7071 -0.7071 0.7071 0.7071 -6.9663 219.8974)" class="st3" width="3.4" height="119.5"></rect> </g> <g class="st2"> <rect x="263.6" y="54.3" transform="matrix(0.7071 -0.7071 0.7071 0.7071 -2.7095 221.6606)" class="st3" width="5.2" height="119.5"></rect> <rect x="263.6" y="54.3" transform="matrix(0.7071 -0.7071 0.7071 0.7071 -2.7095 221.6606)" class="st3" width="5.2" height="119.5"></rect> <rect x="266.6" y="53.1" transform="matrix(0.7071 -0.7071 0.7071 0.7071 -1.4933 222.1644)" class="st4" width="1.7" height="119.5"></rect> <rect x="263.9" y="54.9" transform="matrix(0.7071 -0.7071 0.7071 0.7071 -3.3176 221.4087)" class="st3" width="3.4" height="119.5"></rect> </g> <g class="st2"> <rect x="58.7" y="90.2" transform="matrix(0.7071 -0.7071 0.7071 0.7071 -88.1032 87.2592)" class="st3" width="5.2" height="119.5"></rect> <rect x="58.7" y="90.2" transform="matrix(0.7071 -0.7071 0.7071 0.7071 -88.1032 87.2592)" class="st3" width="5.2" height="119.5"></rect> <rect x="61.6" y="89" transform="matrix(0.7071 -0.7071 0.7071 0.7071 -86.887 87.7629)" class="st4" width="1.7" height="119.5"></rect> <rect x="59" y="90.8" transform="matrix(0.7071 -0.7071 0.7071 0.7071 -88.7113 87.0073)" class="st3" width="3.4" height="119.5"></rect> </g> <g class="st2"> <rect x="62.3" y="86.6" transform="matrix(0.7071 -0.7071 0.7071 0.7071 -84.4545 88.7705)" class="st3" width="5.2" height="119.5"></rect> <rect x="62.3" y="86.6" transform="matrix(0.7071 -0.7071 0.7071 0.7071 -84.4545 88.7705)" class="st3" width="5.2" height="119.5"></rect> <rect x="65.3" y="85.3" transform="matrix(0.7071 -0.7071 0.7071 0.7071 -83.2383 89.2743)" class="st4" width="1.7" height="119.5"></rect> <rect x="62.6" y="87.2" transform="matrix(0.7071 -0.7071 0.7071 0.7071 -85.0626 88.5186)" class="st3" width="3.4" height="119.5"></rect> </g> <g class="st2"> <rect x="66" y="82.9" transform="matrix(0.7071 -0.7071 0.7071 0.7071 -80.8058 90.2818)" class="st3" width="5.2" height="119.5"></rect> <rect x="66" y="82.9" transform="matrix(0.7071 -0.7071 0.7071 0.7071 -80.8058 90.2818)" class="st3" width="5.2" height="119.5"></rect> <rect x="68.9" y="81.7" transform="matrix(0.7071 -0.7071 0.7071 0.7071 -79.5896 90.7856)" class="st4" width="1.7" height="119.5"></rect> <rect x="66.2" y="83.5" transform="matrix(0.7071 -0.7071 0.7071 0.7071 -81.4139 90.0299)" class="st3" width="3.4" height="119.5"></rect> </g> <g class="st2"> <rect x="69.6" y="79.3" transform="matrix(0.7071 -0.7071 0.7071 0.7071 -77.1572 91.7932)" class="st3" width="5.2" height="119.5"></rect> <rect x="69.6" y="79.3" transform="matrix(0.7071 -0.7071 0.7071 0.7071 -77.1572 91.7932)" class="st3" width="5.2" height="119.5"></rect> <rect x="72.6" y="78" transform="matrix(0.7071 -0.7071 0.7071 0.7071 -75.9409 92.2969)" class="st4" width="1.7" height="119.5"></rect> <rect x="69.9" y="79.9" transform="matrix(0.7071 -0.7071 0.7071 0.7071 -77.7653 91.5413)" class="st3" width="3.4" height="119.5"></rect> </g> <g class="st2"> <rect x="73.3" y="75.6" transform="matrix(0.7071 -0.7071 0.7071 0.7071 -73.5085 93.3045)" class="st3" width="5.2" height="119.5"></rect> <rect x="73.3" y="75.6" transform="matrix(0.7071 -0.7071 0.7071 0.7071 -73.5085 93.3045)" class="st3" width="5.2" height="119.5"></rect> <rect x="76.2" y="74.4" transform="matrix(0.7071 -0.7071 0.7071 0.7071 -72.2923 93.8083)" class="st4" width="1.7" height="119.5"></rect> <rect x="73.5" y="76.2" transform="matrix(0.7071 -0.7071 0.7071 0.7071 -74.1166 93.0526)" class="st3" width="3.4" height="119.5"></rect> </g> <g class="st2"> <rect x="76.9" y="72" transform="matrix(0.7071 -0.7071 0.7071 0.7071 -69.8598 94.8158)" class="st3" width="5.2" height="119.5"></rect> <rect x="76.9" y="72" transform="matrix(0.7071 -0.7071 0.7071 0.7071 -69.8598 94.8158)" class="st3" width="5.2" height="119.5"></rect> <rect x="79.9" y="70.7" transform="matrix(0.7071 -0.7071 0.7071 0.7071 -68.6436 95.3196)" class="st4" width="1.7" height="119.5"></rect> <rect x="77.2" y="72.6" transform="matrix(0.7071 -0.7071 0.7071 0.7071 -70.4679 94.5639)" class="st3" width="3.4" height="119.5"></rect> </g> <g class="st2"> <rect x="80.6" y="68.3" transform="matrix(0.7071 -0.7071 0.7071 0.7071 -66.2112 96.3271)" class="st3" width="5.2" height="119.5"></rect> <rect x="80.6" y="68.3" transform="matrix(0.7071 -0.7071 0.7071 0.7071 -66.2112 96.3271)" class="st3" width="5.2" height="119.5"></rect> <rect x="83.5" y="67.1" transform="matrix(0.7071 -0.7071 0.7071 0.7071 -64.9949 96.8309)" class="st4" width="1.7" height="119.5"></rect> <rect x="80.8" y="68.9" transform="matrix(0.7071 -0.7071 0.7071 0.7071 -66.8193 96.0753)" class="st3" width="3.4" height="119.5"></rect> </g> <g class="st2"> <rect x="84.2" y="64.7" transform="matrix(0.7071 -0.7071 0.7071 0.7071 -62.5625 97.8385)" class="st3" width="5.2" height="119.5"></rect> <rect x="84.2" y="64.7" transform="matrix(0.7071 -0.7071 0.7071 0.7071 -62.5625 97.8385)" class="st3" width="5.2" height="119.5"></rect> <rect x="87.2" y="63.5" transform="matrix(0.7071 -0.7071 0.7071 0.7071 -61.3463 98.3423)" class="st4" width="1.7" height="119.5"></rect> <rect x="84.5" y="65.3" transform="matrix(0.7071 -0.7071 0.7071 0.7071 -63.1706 97.5866)" class="st3" width="3.4" height="119.5"></rect> </g> <g class="st2"> <rect x="87.9" y="61" transform="matrix(0.7071 -0.7071 0.7071 0.7071 -58.9138 99.3498)" class="st3" width="5.2" height="119.5"></rect> <rect x="87.9" y="61" transform="matrix(0.7071 -0.7071 0.7071 0.7071 -58.9138 99.3498)" class="st3" width="5.2" height="119.5"></rect> <rect x="90.8" y="59.8" transform="matrix(0.7071 -0.7071 0.7071 0.7071 -57.6976 99.8536)" class="st4" width="1.7" height="119.5"></rect> <rect x="88.1" y="61.6" transform="matrix(0.7071 -0.7071 0.7071 0.7071 -59.5219 99.0979)" class="st3" width="3.4" height="119.5"></rect> </g> <g class="st2"> <rect x="91.5" y="57.4" transform="matrix(0.7071 -0.7071 0.7071 0.7071 -55.2651 100.8611)" class="st3" width="5.2" height="119.5"></rect> <rect x="91.5" y="57.4" transform="matrix(0.7071 -0.7071 0.7071 0.7071 -55.2651 100.8611)" class="st3" width="5.2" height="119.5"></rect> <rect x="94.5" y="56.2" transform="matrix(0.7071 -0.7071 0.7071 0.7071 -54.0489 101.3649)" class="st4" width="1.7" height="119.5"></rect> <rect x="91.8" y="58" transform="matrix(0.7071 -0.7071 0.7071 0.7071 -55.8732 100.6092)" class="st3" width="3.4" height="119.5"></rect> </g> <g class="st2"> <rect x="95.2" y="53.7" transform="matrix(0.7071 -0.7071 0.7071 0.7071 -51.6165 102.3725)" class="st3" width="5.2" height="119.5"></rect> <rect x="95.2" y="53.7" transform="matrix(0.7071 -0.7071 0.7071 0.7071 -51.6165 102.3725)" class="st3" width="5.2" height="119.5"></rect> <rect x="98.1" y="52.5" transform="matrix(0.7071 -0.7071 0.7071 0.7071 -50.4002 102.8762)" class="st4" width="1.7" height="119.5"></rect> <rect x="95.4" y="54.3" transform="matrix(0.7071 -0.7071 0.7071 0.7071 -52.2246 102.1206)" class="st3" width="3.4" height="119.5"></rect> </g> <g class="st2"> <rect x="98.8" y="50.1" transform="matrix(0.7071 -0.7071 0.7071 0.7071 -47.9678 103.8838)" class="st3" width="5.2" height="119.5"></rect> <rect x="98.8" y="50.1" transform="matrix(0.7071 -0.7071 0.7071 0.7071 -47.9678 103.8838)" class="st3" width="5.2" height="119.5"></rect> <rect x="101.8" y="48.9" transform="matrix(0.7071 -0.7071 0.7071 0.7071 -46.7516 104.3876)" class="st4" width="1.7" height="119.5"></rect> <rect x="99.1" y="50.7" transform="matrix(0.7071 -0.7071 0.7071 0.7071 -48.5759 103.6319)" class="st3" width="3.4" height="119.5"></rect> </g> <g class="st2"> <rect x="102.5" y="46.4" transform="matrix(0.7071 -0.7071 0.7071 0.7071 -44.3191 105.3951)" class="st3" width="5.2" height="119.5"></rect> <rect x="102.5" y="46.4" transform="matrix(0.7071 -0.7071 0.7071 0.7071 -44.3191 105.3951)" class="st3" width="5.2" height="119.5"></rect> <rect x="105.4" y="45.2" transform="matrix(0.7071 -0.7071 0.7071 0.7071 -43.1029 105.8989)" class="st4" width="1.7" height="119.5"></rect> <rect x="102.7" y="47" transform="matrix(0.7071 -0.7071 0.7071 0.7071 -44.9272 105.1432)" class="st3" width="3.4" height="119.5"></rect> </g> <g class="st2"> <rect x="106.1" y="42.8" transform="matrix(0.7071 -0.7071 0.7071 0.7071 -40.6705 106.9064)" class="st3" width="5.2" height="119.5"></rect> <rect x="106.1" y="42.8" transform="matrix(0.7071 -0.7071 0.7071 0.7071 -40.6705 106.9064)" class="st3" width="5.2" height="119.5"></rect> <rect x="109.1" y="41.6" transform="matrix(0.7071 -0.7071 0.7071 0.7071 -39.4542 107.4102)" class="st4" width="1.7" height="119.5"></rect> <rect x="106.4" y="43.4" transform="matrix(0.7071 -0.7071 0.7071 0.7071 -41.2786 106.6546)" class="st3" width="3.4" height="119.5"></rect> </g> <g class="st2"> <rect x="109.8" y="39.1" transform="matrix(0.7071 -0.7071 0.7071 0.7071 -37.0218 108.4178)" class="st3" width="5.2" height="119.5"></rect> <rect x="109.8" y="39.1" transform="matrix(0.7071 -0.7071 0.7071 0.7071 -37.0218 108.4178)" class="st3" width="5.2" height="119.5"></rect> <rect x="112.7" y="37.9" transform="matrix(0.7071 -0.7071 0.7071 0.7071 -35.8056 108.9216)" class="st4" width="1.7" height="119.5"></rect> <rect x="110" y="39.7" transform="matrix(0.7071 -0.7071 0.7071 0.7071 -37.6299 108.1659)" class="st3" width="3.4" height="119.5"></rect> </g> <g class="st2"> <rect x="113.4" y="35.5" transform="matrix(0.7071 -0.7071 0.7071 0.7071 -33.3731 109.9291)" class="st3" width="5.2" height="119.5"></rect> <rect x="113.4" y="35.5" transform="matrix(0.7071 -0.7071 0.7071 0.7071 -33.3731 109.9291)" class="st3" width="5.2" height="119.5"></rect> <rect x="116.4" y="34.3" transform="matrix(0.7071 -0.7071 0.7071 0.7071 -32.1569 110.4329)" class="st4" width="1.7" height="119.5"></rect> <rect x="113.7" y="36.1" transform="matrix(0.7071 -0.7071 0.7071 0.7071 -33.9812 109.6772)" class="st3" width="3.4" height="119.5"></rect> </g> <g class="st2"> <rect x="117.1" y="31.8" transform="matrix(0.7071 -0.7071 0.7071 0.7071 -29.7244 111.4404)" class="st3" width="5.2" height="119.5"></rect> <rect x="117.1" y="31.8" transform="matrix(0.7071 -0.7071 0.7071 0.7071 -29.7244 111.4404)" class="st3" width="5.2" height="119.5"></rect> <rect x="120" y="30.6" transform="matrix(0.7071 -0.7071 0.7071 0.7071 -28.5082 111.9442)" class="st4" width="1.7" height="119.5"></rect> <rect x="117.3" y="32.4" transform="matrix(0.7071 -0.7071 0.7071 0.7071 -30.3326 111.1886)" class="st3" width="3.4" height="119.5"></rect> </g> <g class="st2"> <rect x="120.7" y="28.2" transform="matrix(0.7071 -0.7071 0.7071 0.7071 -26.0758 112.9518)" class="st3" width="5.2" height="119.5"></rect> <rect x="120.7" y="28.2" transform="matrix(0.7071 -0.7071 0.7071 0.7071 -26.0758 112.9518)" class="st3" width="5.2" height="119.5"></rect> <rect x="123.7" y="27" transform="matrix(0.7071 -0.7071 0.7071 0.7071 -24.8595 113.4555)" class="st4" width="1.7" height="119.5"></rect> <rect x="121" y="28.8" transform="matrix(0.7071 -0.7071 0.7071 0.7071 -26.6839 112.6999)" class="st3" width="3.4" height="119.5"></rect> </g> <g class="st2"> <rect x="124.4" y="24.5" transform="matrix(0.7071 -0.7071 0.7071 0.7071 -22.4271 114.4631)" class="st3" width="5.2" height="119.5"></rect> <rect x="124.4" y="24.5" transform="matrix(0.7071 -0.7071 0.7071 0.7071 -22.4271 114.4631)" class="st3" width="5.2" height="119.5"></rect> <rect x="127.3" y="23.3" transform="matrix(0.7071 -0.7071 0.7071 0.7071 -21.2109 114.9669)" class="st4" width="1.7" height="119.5"></rect> <rect x="124.6" y="25.1" transform="matrix(0.7071 -0.7071 0.7071 0.7071 -23.0352 114.2112)" class="st3" width="3.4" height="119.5"></rect> </g> <g class="st2"> <rect x="128" y="20.9" transform="matrix(0.7071 -0.7071 0.7071 0.7071 -18.7784 115.9744)" class="st3" width="5.2" height="119.5"></rect> <rect x="128" y="20.9" transform="matrix(0.7071 -0.7071 0.7071 0.7071 -18.7784 115.9744)" class="st3" width="5.2" height="119.5"></rect> <rect x="131" y="19.7" transform="matrix(0.7071 -0.7071 0.7071 0.7071 -17.5622 116.4782)" class="st4" width="1.7" height="119.5"></rect> <rect x="128.3" y="21.5" transform="matrix(0.7071 -0.7071 0.7071 0.7071 -19.3865 115.7225)" class="st3" width="3.4" height="119.5"></rect> </g> <g class="st2"> <rect x="131.7" y="17.2" transform="matrix(0.7071 -0.7071 0.7071 0.7071 -15.1298 117.4858)" class="st3" width="5.2" height="119.5"></rect> <rect x="131.7" y="17.2" transform="matrix(0.7071 -0.7071 0.7071 0.7071 -15.1298 117.4858)" class="st3" width="5.2" height="119.5"></rect> <rect x="134.6" y="16" transform="matrix(0.7071 -0.7071 0.7071 0.7071 -13.9135 117.9895)" class="st4" width="1.7" height="119.5"></rect> <rect x="131.9" y="17.8" transform="matrix(0.7071 -0.7071 0.7071 0.7071 -15.7379 117.2339)" class="st3" width="3.4" height="119.5"></rect> </g> <g class="st2"> <rect x="135.3" y="13.6" transform="matrix(0.7071 -0.7071 0.7071 0.7071 -11.4811 118.9971)" class="st3" width="5.2" height="119.5"></rect> <rect x="135.3" y="13.6" transform="matrix(0.7071 -0.7071 0.7071 0.7071 -11.4811 118.9971)" class="st3" width="5.2" height="119.5"></rect> <rect x="138.3" y="12.4" transform="matrix(0.7071 -0.7071 0.7071 0.7071 -10.2649 119.5009)" class="st4" width="1.7" height="119.5"></rect> <rect x="135.6" y="14.2" transform="matrix(0.7071 -0.7071 0.7071 0.7071 -12.0892 118.7452)" class="st3" width="3.4" height="119.5"></rect> </g> <g class="st2"> <rect x="139" y="9.9" transform="matrix(0.7071 -0.7071 0.7071 0.7071 -7.8324 120.5084)" class="st3" width="5.2" height="119.5"></rect> <rect x="139" y="9.9" transform="matrix(0.7071 -0.7071 0.7071 0.7071 -7.8324 120.5084)" class="st3" width="5.2" height="119.5"></rect> <rect x="141.9" y="8.7" transform="matrix(0.7071 -0.7071 0.7071 0.7071 -6.6162 121.0122)" class="st4" width="1.7" height="119.5"></rect> <rect x="139.2" y="10.5" transform="matrix(0.7071 -0.7071 0.7071 0.7071 -8.4405 120.2565)" class="st3" width="3.4" height="119.5"></rect> </g> <g class="st2"> <rect x="142.6" y="6.3" transform="matrix(0.7071 -0.7071 0.7071 0.7071 -4.1837 122.0197)" class="st3" width="5.2" height="119.5"></rect> <rect x="142.6" y="6.3" transform="matrix(0.7071 -0.7071 0.7071 0.7071 -4.1837 122.0197)" class="st3" width="5.2" height="119.5"></rect> <rect x="145.6" y="5.1" transform="matrix(0.7071 -0.7071 0.7071 0.7071 -2.9675 122.5235)" class="st4" width="1.7" height="119.5"></rect> <rect x="142.9" y="6.9" transform="matrix(0.7071 -0.7071 0.7071 0.7071 -4.7919 121.7679)" class="st3" width="3.4" height="119.5"></rect> </g> <g class="st2"> <rect x="146.3" y="2.6" transform="matrix(0.7071 -0.7071 0.7071 0.7071 -0.5351 123.5311)" class="st3" width="5.2" height="119.5"></rect> <rect x="146.3" y="2.6" transform="matrix(0.7071 -0.7071 0.7071 0.7071 -0.5351 123.5311)" class="st3" width="5.2" height="119.5"></rect> <rect x="149.2" y="1.4" transform="matrix(0.7071 -0.7071 0.7071 0.7071 0.6812 124.0349)" class="st4" width="1.7" height="119.5"></rect> <rect x="146.5" y="3.2" transform="matrix(0.7071 -0.7071 0.7071 0.7071 -1.1432 123.2792)" class="st3" width="3.4" height="119.5"></rect> </g> <g class="st2"> <rect x="149.9" y="-1" transform="matrix(0.7071 -0.7071 0.7071 0.7071 3.1136 125.0424)" class="st3" width="5.2" height="119.5"></rect> <rect x="149.9" y="-1" transform="matrix(0.7071 -0.7071 0.7071 0.7071 3.1136 125.0424)" class="st3" width="5.2" height="119.5"></rect> <rect x="152.9" y="-2.2" transform="matrix(0.7071 -0.7071 0.7071 0.7071 4.3298 125.5462)" class="st4" width="1.7" height="119.5"></rect> <rect x="150.2" y="-0.4" transform="matrix(0.7071 -0.7071 0.7071 0.7071 2.5055 124.7905)" class="st3" width="3.4" height="119.5"></rect> </g> <g class="st2"> <rect x="153.6" y="-4.7" transform="matrix(0.7071 -0.7071 0.7071 0.7071 6.7623 126.5537)" class="st3" width="5.2" height="119.5"></rect> <rect x="153.6" y="-4.7" transform="matrix(0.7071 -0.7071 0.7071 0.7071 6.7623 126.5537)" class="st3" width="5.2" height="119.5"></rect> <rect x="156.5" y="-5.9" transform="matrix(0.7071 -0.7071 0.7071 0.7071 7.9785 127.0575)" class="st4" width="1.7" height="119.5"></rect> <rect x="153.8" y="-4" transform="matrix(0.7071 -0.7071 0.7071 0.7071 6.1542 126.3018)" class="st3" width="3.4" height="119.5"></rect> </g> <g class="st2"> <rect x="157.2" y="-8.3" transform="matrix(0.7071 -0.7071 0.7071 0.7071 10.4109 128.0651)" class="st3" width="5.2" height="119.5"></rect> <rect x="157.2" y="-8.3" transform="matrix(0.7071 -0.7071 0.7071 0.7071 10.4109 128.0651)" class="st3" width="5.2" height="119.5"></rect> <rect x="160.1" y="-9.5" transform="matrix(0.7071 -0.7071 0.7071 0.7071 11.6272 128.5688)" class="st4" width="1.7" height="119.5"></rect> <rect x="157.5" y="-7.7" transform="matrix(0.7071 -0.7071 0.7071 0.7071 9.8028 127.8132)" class="st3" width="3.4" height="119.5"></rect> </g> <g class="st2"> <rect x="160.9" y="-12" transform="matrix(0.7071 -0.7071 0.7071 0.7071 14.0596 129.5764)" class="st3" width="5.2" height="119.5"></rect> <rect x="160.9" y="-12" transform="matrix(0.7071 -0.7071 0.7071 0.7071 14.0596 129.5764)" class="st3" width="5.2" height="119.5"></rect> <rect x="163.8" y="-13.2" transform="matrix(0.7071 -0.7071 0.7071 0.7071 15.2758 130.0802)" class="st4" width="1.7" height="119.5"></rect> <rect x="161.1" y="-11.3" transform="matrix(0.7071 -0.7071 0.7071 0.7071 13.4515 129.3245)" class="st3" width="3.4" height="119.5"></rect> </g> <g class="st2"> <rect x="164.5" y="-15.6" transform="matrix(0.7071 -0.7071 0.7071 0.7071 17.7083 131.0877)" class="st3" width="5.2" height="119.5"></rect> <rect x="164.5" y="-15.6" transform="matrix(0.7071 -0.7071 0.7071 0.7071 17.7083 131.0877)" class="st3" width="5.2" height="119.5"></rect> <rect x="167.4" y="-16.8" transform="matrix(0.7071 -0.7071 0.7071 0.7071 18.9245 131.5915)" class="st4" width="1.7" height="119.5"></rect> <rect x="164.8" y="-15" transform="matrix(0.7071 -0.7071 0.7071 0.7071 17.1002 130.8358)" class="st3" width="3.4" height="119.5"></rect> </g> <g class="st2"> <rect x="168.2" y="-19.3" transform="matrix(0.7071 -0.7071 0.7071 0.7071 21.357 132.599)" class="st3" width="5.2" height="119.5"></rect> <rect x="168.2" y="-19.3" transform="matrix(0.7071 -0.7071 0.7071 0.7071 21.357 132.599)" class="st3" width="5.2" height="119.5"></rect> <rect x="171.1" y="-20.5" transform="matrix(0.7071 -0.7071 0.7071 0.7071 22.5732 133.1028)" class="st4" width="1.7" height="119.5"></rect> <rect x="168.4" y="-18.6" transform="matrix(0.7071 -0.7071 0.7071 0.7071 20.7488 132.3472)" class="st3" width="3.4" height="119.5"></rect> </g> <g class="st2"> <rect x="171.8" y="-22.9" transform="matrix(0.7071 -0.7071 0.7071 0.7071 25.0056 134.1104)" class="st3" width="5.2" height="119.5"></rect> <rect x="171.8" y="-22.9" transform="matrix(0.7071 -0.7071 0.7071 0.7071 25.0056 134.1104)" class="st3" width="5.2" height="119.5"></rect> <rect x="174.7" y="-24.1" transform="matrix(0.7071 -0.7071 0.7071 0.7071 26.2219 134.6142)" class="st4" width="1.7" height="119.5"></rect> <rect x="172.1" y="-22.3" transform="matrix(0.7071 -0.7071 0.7071 0.7071 24.3975 133.8585)" class="st3" width="3.4" height="119.5"></rect> </g> <g class="st2"> <rect x="175.5" y="-26.5" transform="matrix(0.7071 -0.7071 0.7071 0.7071 28.6543 135.6217)" class="st3" width="5.2" height="119.5"></rect> <rect x="175.5" y="-26.5" transform="matrix(0.7071 -0.7071 0.7071 0.7071 28.6543 135.6217)" class="st3" width="5.2" height="119.5"></rect> <rect x="178.4" y="-27.8" transform="matrix(0.7071 -0.7071 0.7071 0.7071 29.8705 136.1255)" class="st4" width="1.7" height="119.5"></rect> <rect x="175.7" y="-25.9" transform="matrix(0.7071 -0.7071 0.7071 0.7071 28.0462 135.3698)" class="st3" width="3.4" height="119.5"></rect> </g> <g class="st2"> <rect x="179.1" y="-30.2" transform="matrix(0.7071 -0.7071 0.7071 0.7071 32.303 137.133)" class="st3" width="5.2" height="119.5"></rect> <rect x="179.1" y="-30.2" transform="matrix(0.7071 -0.7071 0.7071 0.7071 32.303 137.133)" class="st3" width="5.2" height="119.5"></rect> <rect x="182" y="-31.4" transform="matrix(0.7071 -0.7071 0.7071 0.7071 33.5192 137.6368)" class="st4" width="1.7" height="119.5"></rect> <rect x="179.4" y="-29.6" transform="matrix(0.7071 -0.7071 0.7071 0.7071 31.6949 136.8811)" class="st3" width="3.4" height="119.5"></rect> </g> <g class="st2"> <rect x="182.8" y="-33.8" transform="matrix(0.7071 -0.7071 0.7071 0.7071 35.9516 138.6444)" class="st3" width="5.2" height="119.5"></rect> <rect x="182.8" y="-33.8" transform="matrix(0.7071 -0.7071 0.7071 0.7071 35.9516 138.6444)" class="st3" width="5.2" height="119.5"></rect> <rect x="185.7" y="-35.1" transform="matrix(0.7071 -0.7071 0.7071 0.7071 37.1679 139.1481)" class="st4" width="1.7" height="119.5"></rect> <rect x="183" y="-33.2" transform="matrix(0.7071 -0.7071 0.7071 0.7071 35.3435 138.3925)" class="st3" width="3.4" height="119.5"></rect> </g> <g class="st2"> <rect x="168.8" y="149.2" transform="matrix(0.7071 -0.7071 0.7071 0.7071 -97.5749 182.366)" class="st3" width="5.2" height="119.5"></rect> <rect x="168.8" y="149.2" transform="matrix(0.7071 -0.7071 0.7071 0.7071 -97.5749 182.366)" class="st3" width="5.2" height="119.5"></rect> <rect x="171.7" y="148" transform="matrix(0.7071 -0.7071 0.7071 0.7071 -96.3587 182.8698)" class="st4" width="1.7" height="119.5"></rect> <rect x="169" y="149.8" transform="matrix(0.7071 -0.7071 0.7071 0.7071 -98.1831 182.1141)" class="st3" width="3.4" height="119.5"></rect> </g> <g class="st2"> <rect x="172.4" y="145.5" transform="matrix(0.7071 -0.7071 0.7071 0.7071 -93.9263 183.8773)" class="st3" width="5.2" height="119.5"></rect> <rect x="172.4" y="145.5" transform="matrix(0.7071 -0.7071 0.7071 0.7071 -93.9263 183.8773)" class="st3" width="5.2" height="119.5"></rect> <rect x="175.4" y="144.3" transform="matrix(0.7071 -0.7071 0.7071 0.7071 -92.71 184.3811)" class="st4" width="1.7" height="119.5"></rect> <rect x="172.7" y="146.2" transform="matrix(0.7071 -0.7071 0.7071 0.7071 -94.5344 183.6255)" class="st3" width="3.4" height="119.5"></rect> </g> <g class="st2"> <rect x="176.1" y="141.9" transform="matrix(0.7071 -0.7071 0.7071 0.7071 -90.2776 185.3887)" class="st3" width="5.2" height="119.5"></rect> <rect x="176.1" y="141.9" transform="matrix(0.7071 -0.7071 0.7071 0.7071 -90.2776 185.3887)" class="st3" width="5.2" height="119.5"></rect> <rect x="179" y="140.7" transform="matrix(0.7071 -0.7071 0.7071 0.7071 -89.0614 185.8925)" class="st4" width="1.7" height="119.5"></rect> <rect x="176.3" y="142.5" transform="matrix(0.7071 -0.7071 0.7071 0.7071 -90.8857 185.1368)" class="st3" width="3.4" height="119.5"></rect> </g> <g class="st2"> <rect x="179.7" y="138.3" transform="matrix(0.7071 -0.7071 0.7071 0.7071 -86.6289 186.9)" class="st3" width="5.2" height="119.5"></rect> <rect x="179.7" y="138.3" transform="matrix(0.7071 -0.7071 0.7071 0.7071 -86.6289 186.9)" class="st3" width="5.2" height="119.5"></rect> <rect x="182.7" y="137" transform="matrix(0.7071 -0.7071 0.7071 0.7071 -85.4127 187.4038)" class="st4" width="1.7" height="119.5"></rect> <rect x="180" y="138.9" transform="matrix(0.7071 -0.7071 0.7071 0.7071 -87.237 186.6481)" class="st3" width="3.4" height="119.5"></rect> </g> <g class="st2"> <rect x="183.4" y="134.6" transform="matrix(0.7071 -0.7071 0.7071 0.7071 -82.9803 188.4113)" class="st3" width="5.2" height="119.5"></rect> <rect x="183.4" y="134.6" transform="matrix(0.7071 -0.7071 0.7071 0.7071 -82.9803 188.4113)" class="st3" width="5.2" height="119.5"></rect> <rect x="186.3" y="133.4" transform="matrix(0.7071 -0.7071 0.7071 0.7071 -81.764 188.9151)" class="st4" width="1.7" height="119.5"></rect> <rect x="183.6" y="135.2" transform="matrix(0.7071 -0.7071 0.7071 0.7071 -83.5884 188.1595)" class="st3" width="3.4" height="119.5"></rect> </g> <g class="st2"> <rect x="187" y="131" transform="matrix(0.7071 -0.7071 0.7071 0.7071 -79.3316 189.9227)" class="st3" width="5.2" height="119.5"></rect> <rect x="187" y="131" transform="matrix(0.7071 -0.7071 0.7071 0.7071 -79.3316 189.9227)" class="st3" width="5.2" height="119.5"></rect> <rect x="189.9" y="129.7" transform="matrix(0.7071 -0.7071 0.7071 0.7071 -78.1154 190.4265)" class="st4" width="1.7" height="119.5"></rect> <rect x="187.3" y="131.6" transform="matrix(0.7071 -0.7071 0.7071 0.7071 -79.9397 189.6708)" class="st3" width="3.4" height="119.5"></rect> </g> <g class="st2"> <rect x="190.7" y="127.3" transform="matrix(0.7071 -0.7071 0.7071 0.7071 -75.6829 191.434)" class="st3" width="5.2" height="119.5"></rect> <rect x="190.7" y="127.3" transform="matrix(0.7071 -0.7071 0.7071 0.7071 -75.6829 191.434)" class="st3" width="5.2" height="119.5"></rect> <rect x="193.6" y="126.1" transform="matrix(0.7071 -0.7071 0.7071 0.7071 -74.4667 191.9378)" class="st4" width="1.7" height="119.5"></rect> <rect x="190.9" y="127.9" transform="matrix(0.7071 -0.7071 0.7071 0.7071 -76.291 191.1821)" class="st3" width="3.4" height="119.5"></rect> </g> <g class="st2"> <rect x="194.3" y="123.7" transform="matrix(0.7071 -0.7071 0.7071 0.7071 -72.0342 192.9453)" class="st3" width="5.2" height="119.5"></rect> <rect x="194.3" y="123.7" transform="matrix(0.7071 -0.7071 0.7071 0.7071 -72.0342 192.9453)" class="st3" width="5.2" height="119.5"></rect> <rect x="197.2" y="122.4" transform="matrix(0.7071 -0.7071 0.7071 0.7071 -70.818 193.4491)" class="st4" width="1.7" height="119.5"></rect> <rect x="194.6" y="124.3" transform="matrix(0.7071 -0.7071 0.7071 0.7071 -72.6423 192.6934)" class="st3" width="3.4" height="119.5"></rect> </g> <g class="st2"> <rect x="198" y="120" transform="matrix(0.7071 -0.7071 0.7071 0.7071 -68.3856 194.4567)" class="st3" width="5.2" height="119.5"></rect> <rect x="198" y="120" transform="matrix(0.7071 -0.7071 0.7071 0.7071 -68.3856 194.4567)" class="st3" width="5.2" height="119.5"></rect> <rect x="200.9" y="118.8" transform="matrix(0.7071 -0.7071 0.7071 0.7071 -67.1693 194.9604)" class="st4" width="1.7" height="119.5"></rect> <rect x="198.2" y="120.6" transform="matrix(0.7071 -0.7071 0.7071 0.7071 -68.9937 194.2048)" class="st3" width="3.4" height="119.5"></rect> </g> <g class="st2"> <rect x="201.6" y="116.4" transform="matrix(0.7071 -0.7071 0.7071 0.7071 -64.7369 195.968)" class="st3" width="5.2" height="119.5"></rect> <rect x="201.6" y="116.4" transform="matrix(0.7071 -0.7071 0.7071 0.7071 -64.7369 195.968)" class="st3" width="5.2" height="119.5"></rect> <rect x="204.5" y="115.1" transform="matrix(0.7071 -0.7071 0.7071 0.7071 -63.5207 196.4718)" class="st4" width="1.7" height="119.5"></rect> <rect x="201.9" y="117" transform="matrix(0.7071 -0.7071 0.7071 0.7071 -65.345 195.7161)" class="st3" width="3.4" height="119.5"></rect> </g> <g class="st2"> <rect x="205.3" y="112.7" transform="matrix(0.7071 -0.7071 0.7071 0.7071 -61.0882 197.4793)" class="st3" width="5.2" height="119.5"></rect> <rect x="205.3" y="112.7" transform="matrix(0.7071 -0.7071 0.7071 0.7071 -61.0882 197.4793)" class="st3" width="5.2" height="119.5"></rect> <rect x="208.2" y="111.5" transform="matrix(0.7071 -0.7071 0.7071 0.7071 -59.872 197.9831)" class="st4" width="1.7" height="119.5"></rect> <rect x="205.5" y="113.3" transform="matrix(0.7071 -0.7071 0.7071 0.7071 -61.6963 197.2274)" class="st3" width="3.4" height="119.5"></rect> </g> <g class="st2"> <rect x="208.9" y="109.1" transform="matrix(0.7071 -0.7071 0.7071 0.7071 -57.4396 198.9906)" class="st3" width="5.2" height="119.5"></rect> <rect x="208.9" y="109.1" transform="matrix(0.7071 -0.7071 0.7071 0.7071 -57.4396 198.9906)" class="st3" width="5.2" height="119.5"></rect> <rect x="211.8" y="107.8" transform="matrix(0.7071 -0.7071 0.7071 0.7071 -56.2233 199.4944)" class="st4" width="1.7" height="119.5"></rect> <rect x="209.2" y="109.7" transform="matrix(0.7071 -0.7071 0.7071 0.7071 -58.0477 198.7388)" class="st3" width="3.4" height="119.5"></rect> </g> <g class="st2"> <rect x="212.6" y="105.4" transform="matrix(0.7071 -0.7071 0.7071 0.7071 -53.7909 200.502)" class="st3" width="5.2" height="119.5"></rect> <rect x="212.6" y="105.4" transform="matrix(0.7071 -0.7071 0.7071 0.7071 -53.7909 200.502)" class="st3" width="5.2" height="119.5"></rect> <rect x="215.5" y="104.2" transform="matrix(0.7071 -0.7071 0.7071 0.7071 -52.5747 201.0058)" class="st4" width="1.7" height="119.5"></rect> <rect x="212.8" y="106" transform="matrix(0.7071 -0.7071 0.7071 0.7071 -54.399 200.2501)" class="st3" width="3.4" height="119.5"></rect> </g> <g class="st2"> <rect x="216.2" y="101.8" transform="matrix(0.7071 -0.7071 0.7071 0.7071 -50.1422 202.0133)" class="st3" width="5.2" height="119.5"></rect> <rect x="216.2" y="101.8" transform="matrix(0.7071 -0.7071 0.7071 0.7071 -50.1422 202.0133)" class="st3" width="5.2" height="119.5"></rect> <rect x="219.1" y="100.5" transform="matrix(0.7071 -0.7071 0.7071 0.7071 -48.926 202.5171)" class="st4" width="1.7" height="119.5"></rect> <rect x="216.5" y="102.4" transform="matrix(0.7071 -0.7071 0.7071 0.7071 -50.7503 201.7614)" class="st3" width="3.4" height="119.5"></rect> </g> <g class="st2"> <rect x="219.8" y="98.1" transform="matrix(0.7071 -0.7071 0.7071 0.7071 -46.4935 203.5246)" class="st3" width="5.2" height="119.5"></rect> <rect x="219.8" y="98.1" transform="matrix(0.7071 -0.7071 0.7071 0.7071 -46.4935 203.5246)" class="st3" width="5.2" height="119.5"></rect> <rect x="222.8" y="96.9" transform="matrix(0.7071 -0.7071 0.7071 0.7071 -45.2773 204.0284)" class="st4" width="1.7" height="119.5"></rect> <rect x="220.1" y="98.7" transform="matrix(0.7071 -0.7071 0.7071 0.7071 -47.1017 203.2728)" class="st3" width="3.4" height="119.5"></rect> </g> <g class="st2"> <rect x="223.5" y="94.5" transform="matrix(0.7071 -0.7071 0.7071 0.7071 -42.8449 205.036)" class="st3" width="5.2" height="119.5"></rect> <rect x="223.5" y="94.5" transform="matrix(0.7071 -0.7071 0.7071 0.7071 -42.8449 205.036)" class="st3" width="5.2" height="119.5"></rect> <rect x="226.4" y="93.3" transform="matrix(0.7071 -0.7071 0.7071 0.7071 -41.6286 205.5397)" class="st4" width="1.7" height="119.5"></rect> <rect x="223.7" y="95.1" transform="matrix(0.7071 -0.7071 0.7071 0.7071 -43.453 204.7841)" class="st3" width="3.4" height="119.5"></rect> </g> <g class="st2"> <rect x="227.1" y="90.8" transform="matrix(0.7071 -0.7071 0.7071 0.7071 -39.1962 206.5473)" class="st3" width="5.2" height="119.5"></rect> <rect x="227.1" y="90.8" transform="matrix(0.7071 -0.7071 0.7071 0.7071 -39.1962 206.5473)" class="st3" width="5.2" height="119.5"></rect> <rect x="230.1" y="89.6" transform="matrix(0.7071 -0.7071 0.7071 0.7071 -37.98 207.0511)" class="st4" width="1.7" height="119.5"></rect> <rect x="227.4" y="91.4" transform="matrix(0.7071 -0.7071 0.7071 0.7071 -39.8043 206.2954)" class="st3" width="3.4" height="119.5"></rect> </g> <g class="st2"> <rect x="230.8" y="87.2" transform="matrix(0.7071 -0.7071 0.7071 0.7071 -35.5475 208.0586)" class="st3" width="5.2" height="119.5"></rect> <rect x="230.8" y="87.2" transform="matrix(0.7071 -0.7071 0.7071 0.7071 -35.5475 208.0586)" class="st3" width="5.2" height="119.5"></rect> <rect x="233.7" y="86" transform="matrix(0.7071 -0.7071 0.7071 0.7071 -34.3313 208.5624)" class="st4" width="1.7" height="119.5"></rect> <rect x="231" y="87.8" transform="matrix(0.7071 -0.7071 0.7071 0.7071 -36.1556 207.8067)" class="st3" width="3.4" height="119.5"></rect> </g> <g class="st2"> <rect x="234.4" y="83.5" transform="matrix(0.7071 -0.7071 0.7071 0.7071 -31.8989 209.5699)" class="st3" width="5.2" height="119.5"></rect> <rect x="234.4" y="83.5" transform="matrix(0.7071 -0.7071 0.7071 0.7071 -31.8989 209.5699)" class="st3" width="5.2" height="119.5"></rect> <rect x="237.4" y="82.3" transform="matrix(0.7071 -0.7071 0.7071 0.7071 -30.6826 210.0737)" class="st4" width="1.7" height="119.5"></rect> <rect x="234.7" y="84.1" transform="matrix(0.7071 -0.7071 0.7071 0.7071 -32.507 209.3181)" class="st3" width="3.4" height="119.5"></rect> </g> <g class="st2"> <rect x="238.1" y="79.9" transform="matrix(0.7071 -0.7071 0.7071 0.7071 -28.2502 211.0813)" class="st3" width="5.2" height="119.5"></rect> <rect x="238.1" y="79.9" transform="matrix(0.7071 -0.7071 0.7071 0.7071 -28.2502 211.0813)" class="st3" width="5.2" height="119.5"></rect> <rect x="241" y="78.7" transform="matrix(0.7071 -0.7071 0.7071 0.7071 -27.034 211.5851)" class="st4" width="1.7" height="119.5"></rect> <rect x="238.3" y="80.5" transform="matrix(0.7071 -0.7071 0.7071 0.7071 -28.8583 210.8294)" class="st3" width="3.4" height="119.5"></rect> </g> <g class="st2"> <rect x="241.7" y="76.2" transform="matrix(0.7071 -0.7071 0.7071 0.7071 -24.6015 212.5926)" class="st3" width="5.2" height="119.5"></rect> <rect x="241.7" y="76.2" transform="matrix(0.7071 -0.7071 0.7071 0.7071 -24.6015 212.5926)" class="st3" width="5.2" height="119.5"></rect> <rect x="244.7" y="75" transform="matrix(0.7071 -0.7071 0.7071 0.7071 -23.3853 213.0964)" class="st4" width="1.7" height="119.5"></rect> <rect x="242" y="76.8" transform="matrix(0.7071 -0.7071 0.7071 0.7071 -25.2096 212.3407)" class="st3" width="3.4" height="119.5"></rect> </g> <g class="st2"> <rect x="245.4" y="72.6" transform="matrix(0.7071 -0.7071 0.7071 0.7071 -20.9528 214.1039)" class="st3" width="5.2" height="119.5"></rect> <rect x="245.4" y="72.6" transform="matrix(0.7071 -0.7071 0.7071 0.7071 -20.9528 214.1039)" class="st3" width="5.2" height="119.5"></rect> <rect x="248.3" y="71.4" transform="matrix(0.7071 -0.7071 0.7071 0.7071 -19.7366 214.6077)" class="st4" width="1.7" height="119.5"></rect> <rect x="245.6" y="73.2" transform="matrix(0.7071 -0.7071 0.7071 0.7071 -21.561 213.8521)" class="st3" width="3.4" height="119.5"></rect> </g> <g class="st2"> <rect x="249" y="68.9" transform="matrix(0.7071 -0.7071 0.7071 0.7071 -17.3042 215.6153)" class="st3" width="5.2" height="119.5"></rect> <rect x="249" y="68.9" transform="matrix(0.7071 -0.7071 0.7071 0.7071 -17.3042 215.6153)" class="st3" width="5.2" height="119.5"></rect> <rect x="252" y="67.7" transform="matrix(0.7071 -0.7071 0.7071 0.7071 -16.0879 216.119)" class="st4" width="1.7" height="119.5"></rect> <rect x="249.3" y="69.5" transform="matrix(0.7071 -0.7071 0.7071 0.7071 -17.9123 215.3634)" class="st3" width="3.4" height="119.5"></rect> </g> <g class="st2"> <rect x="252.7" y="65.3" transform="matrix(0.7071 -0.7071 0.7071 0.7071 -13.6555 217.1266)" class="st3" width="5.2" height="119.5"></rect> <rect x="252.7" y="65.3" transform="matrix(0.7071 -0.7071 0.7071 0.7071 -13.6555 217.1266)" class="st3" width="5.2" height="119.5"></rect> <rect x="255.6" y="64.1" transform="matrix(0.7071 -0.7071 0.7071 0.7071 -12.4393 217.6304)" class="st4" width="1.7" height="119.5"></rect> <rect x="252.9" y="65.9" transform="matrix(0.7071 -0.7071 0.7071 0.7071 -14.2636 216.8747)" class="st3" width="3.4" height="119.5"></rect> </g> <g class="st2"> <rect x="256.3" y="61.6" transform="matrix(0.7071 -0.7071 0.7071 0.7071 -10.0068 218.6379)" class="st3" width="5.2" height="119.5"></rect> <rect x="256.3" y="61.6" transform="matrix(0.7071 -0.7071 0.7071 0.7071 -10.0068 218.6379)" class="st3" width="5.2" height="119.5"></rect> <rect x="259.3" y="60.4" transform="matrix(0.7071 -0.7071 0.7071 0.7071 -8.7906 219.1417)" class="st4" width="1.7" height="119.5"></rect> <rect x="256.6" y="62.2" transform="matrix(0.7071 -0.7071 0.7071 0.7071 -10.6149 218.386)" class="st3" width="3.4" height="119.5"></rect> </g> <g class="st2"> <rect x="73.3" y="75.6" transform="matrix(0.7071 -0.7071 0.7071 0.7071 -73.5085 93.3045)" class="st3" width="5.2" height="119.5"></rect> <rect x="73.3" y="75.6" transform="matrix(0.7071 -0.7071 0.7071 0.7071 -73.5085 93.3045)" class="st3" width="5.2" height="119.5"></rect> <rect x="76.2" y="74.4" transform="matrix(0.7071 -0.7071 0.7071 0.7071 -72.2923 93.8083)" class="st4" width="1.7" height="119.5"></rect> <rect x="73.5" y="76.2" transform="matrix(0.7071 -0.7071 0.7071 0.7071 -74.1166 93.0526)" class="st3" width="3.4" height="119.5"></rect> </g> <g class="st2"> <rect x="76.9" y="72" transform="matrix(0.7071 -0.7071 0.7071 0.7071 -69.8598 94.8158)" class="st3" width="5.2" height="119.5"></rect> <rect x="76.9" y="72" transform="matrix(0.7071 -0.7071 0.7071 0.7071 -69.8598 94.8158)" class="st3" width="5.2" height="119.5"></rect> <rect x="79.9" y="70.7" transform="matrix(0.7071 -0.7071 0.7071 0.7071 -68.6436 95.3196)" class="st4" width="1.7" height="119.5"></rect> <rect x="77.2" y="72.6" transform="matrix(0.7071 -0.7071 0.7071 0.7071 -70.4679 94.5639)" class="st3" width="3.4" height="119.5"></rect> </g> <g class="st2"> <rect x="80.6" y="68.3" transform="matrix(0.7071 -0.7071 0.7071 0.7071 -66.2112 96.3271)" class="st3" width="5.2" height="119.5"></rect> <rect x="80.6" y="68.3" transform="matrix(0.7071 -0.7071 0.7071 0.7071 -66.2112 96.3271)" class="st3" width="5.2" height="119.5"></rect> <rect x="83.5" y="67.1" transform="matrix(0.7071 -0.7071 0.7071 0.7071 -64.9949 96.8309)" class="st4" width="1.7" height="119.5"></rect> <rect x="80.8" y="68.9" transform="matrix(0.7071 -0.7071 0.7071 0.7071 -66.8193 96.0753)" class="st3" width="3.4" height="119.5"></rect> </g> <g class="st2"> <rect x="84.2" y="64.7" transform="matrix(0.7071 -0.7071 0.7071 0.7071 -62.5625 97.8385)" class="st3" width="5.2" height="119.5"></rect> <rect x="84.2" y="64.7" transform="matrix(0.7071 -0.7071 0.7071 0.7071 -62.5625 97.8385)" class="st3" width="5.2" height="119.5"></rect> <rect x="87.2" y="63.5" transform="matrix(0.7071 -0.7071 0.7071 0.7071 -61.3463 98.3423)" class="st4" width="1.7" height="119.5"></rect> <rect x="84.5" y="65.3" transform="matrix(0.7071 -0.7071 0.7071 0.7071 -63.1706 97.5866)" class="st3" width="3.4" height="119.5"></rect> </g> <g class="st2"> <rect x="87.9" y="61" transform="matrix(0.7071 -0.7071 0.7071 0.7071 -58.9138 99.3498)" class="st3" width="5.2" height="119.5"></rect> <rect x="87.9" y="61" transform="matrix(0.7071 -0.7071 0.7071 0.7071 -58.9138 99.3498)" class="st3" width="5.2" height="119.5"></rect> <rect x="90.8" y="59.8" transform="matrix(0.7071 -0.7071 0.7071 0.7071 -57.6976 99.8536)" class="st4" width="1.7" height="119.5"></rect> <rect x="88.1" y="61.6" transform="matrix(0.7071 -0.7071 0.7071 0.7071 -59.5219 99.0979)" class="st3" width="3.4" height="119.5"></rect> </g> <g class="st2"> <rect x="91.5" y="57.4" transform="matrix(0.7071 -0.7071 0.7071 0.7071 -55.2651 100.8611)" class="st3" width="5.2" height="119.5"></rect> <rect x="91.5" y="57.4" transform="matrix(0.7071 -0.7071 0.7071 0.7071 -55.2651 100.8611)" class="st3" width="5.2" height="119.5"></rect> <rect x="94.5" y="56.2" transform="matrix(0.7071 -0.7071 0.7071 0.7071 -54.0489 101.3649)" class="st4" width="1.7" height="119.5"></rect> <rect x="91.8" y="58" transform="matrix(0.7071 -0.7071 0.7071 0.7071 -55.8732 100.6092)" class="st3" width="3.4" height="119.5"></rect> </g> <g class="st2"> <rect x="95.2" y="53.7" transform="matrix(0.7071 -0.7071 0.7071 0.7071 -51.6165 102.3725)" class="st3" width="5.2" height="119.5"></rect> <rect x="95.2" y="53.7" transform="matrix(0.7071 -0.7071 0.7071 0.7071 -51.6165 102.3725)" class="st3" width="5.2" height="119.5"></rect> <rect x="98.1" y="52.5" transform="matrix(0.7071 -0.7071 0.7071 0.7071 -50.4002 102.8762)" class="st4" width="1.7" height="119.5"></rect> <rect x="95.4" y="54.3" transform="matrix(0.7071 -0.7071 0.7071 0.7071 -52.2246 102.1206)" class="st3" width="3.4" height="119.5"></rect> </g> <g class="st2"> <rect x="98.8" y="50.1" transform="matrix(0.7071 -0.7071 0.7071 0.7071 -47.9678 103.8838)" class="st3" width="5.2" height="119.5"></rect> <rect x="98.8" y="50.1" transform="matrix(0.7071 -0.7071 0.7071 0.7071 -47.9678 103.8838)" class="st3" width="5.2" height="119.5"></rect> <rect x="101.8" y="48.9" transform="matrix(0.7071 -0.7071 0.7071 0.7071 -46.7516 104.3876)" class="st4" width="1.7" height="119.5"></rect> <rect x="99.1" y="50.7" transform="matrix(0.7071 -0.7071 0.7071 0.7071 -48.5759 103.6319)" class="st3" width="3.4" height="119.5"></rect> </g> <g class="st2"> <rect x="102.5" y="46.4" transform="matrix(0.7071 -0.7071 0.7071 0.7071 -44.3191 105.3951)" class="st3" width="5.2" height="119.5"></rect> <rect x="102.5" y="46.4" transform="matrix(0.7071 -0.7071 0.7071 0.7071 -44.3191 105.3951)" class="st3" width="5.2" height="119.5"></rect> <rect x="105.4" y="45.2" transform="matrix(0.7071 -0.7071 0.7071 0.7071 -43.1029 105.8989)" class="st4" width="1.7" height="119.5"></rect> <rect x="102.7" y="47" transform="matrix(0.7071 -0.7071 0.7071 0.7071 -44.9272 105.1432)" class="st3" width="3.4" height="119.5"></rect> </g> <g class="st2"> <rect x="106.1" y="42.8" transform="matrix(0.7071 -0.7071 0.7071 0.7071 -40.6705 106.9064)" class="st3" width="5.2" height="119.5"></rect> <rect x="106.1" y="42.8" transform="matrix(0.7071 -0.7071 0.7071 0.7071 -40.6705 106.9064)" class="st3" width="5.2" height="119.5"></rect> <rect x="109.1" y="41.6" transform="matrix(0.7071 -0.7071 0.7071 0.7071 -39.4542 107.4102)" class="st4" width="1.7" height="119.5"></rect> <rect x="106.4" y="43.4" transform="matrix(0.7071 -0.7071 0.7071 0.7071 -41.2786 106.6546)" class="st3" width="3.4" height="119.5"></rect> </g> <g class="st2"> <rect x="109.8" y="39.1" transform="matrix(0.7071 -0.7071 0.7071 0.7071 -37.0218 108.4178)" class="st3" width="5.2" height="119.5"></rect> <rect x="109.8" y="39.1" transform="matrix(0.7071 -0.7071 0.7071 0.7071 -37.0218 108.4178)" class="st3" width="5.2" height="119.5"></rect> <rect x="112.7" y="37.9" transform="matrix(0.7071 -0.7071 0.7071 0.7071 -35.8056 108.9216)" class="st4" width="1.7" height="119.5"></rect> <rect x="110" y="39.7" transform="matrix(0.7071 -0.7071 0.7071 0.7071 -37.6299 108.1659)" class="st3" width="3.4" height="119.5"></rect> </g> <g class="st2"> <rect x="113.4" y="35.5" transform="matrix(0.7071 -0.7071 0.7071 0.7071 -33.3731 109.9291)" class="st3" width="5.2" height="119.5"></rect> <rect x="113.4" y="35.5" transform="matrix(0.7071 -0.7071 0.7071 0.7071 -33.3731 109.9291)" class="st3" width="5.2" height="119.5"></rect> <rect x="116.4" y="34.3" transform="matrix(0.7071 -0.7071 0.7071 0.7071 -32.1569 110.4329)" class="st4" width="1.7" height="119.5"></rect> <rect x="113.7" y="36.1" transform="matrix(0.7071 -0.7071 0.7071 0.7071 -33.9812 109.6772)" class="st3" width="3.4" height="119.5"></rect> </g> <g class="st2"> <rect x="117.1" y="31.8" transform="matrix(0.7071 -0.7071 0.7071 0.7071 -29.7244 111.4404)" class="st3" width="5.2" height="119.5"></rect> <rect x="117.1" y="31.8" transform="matrix(0.7071 -0.7071 0.7071 0.7071 -29.7244 111.4404)" class="st3" width="5.2" height="119.5"></rect> <rect x="120" y="30.6" transform="matrix(0.7071 -0.7071 0.7071 0.7071 -28.5082 111.9442)" class="st4" width="1.7" height="119.5"></rect> <rect x="117.3" y="32.4" transform="matrix(0.7071 -0.7071 0.7071 0.7071 -30.3326 111.1886)" class="st3" width="3.4" height="119.5"></rect> </g> <g class="st2"> <rect x="120.7" y="28.2" transform="matrix(0.7071 -0.7071 0.7071 0.7071 -26.0758 112.9518)" class="st3" width="5.2" height="119.5"></rect> <rect x="120.7" y="28.2" transform="matrix(0.7071 -0.7071 0.7071 0.7071 -26.0758 112.9518)" class="st3" width="5.2" height="119.5"></rect> <rect x="123.7" y="27" transform="matrix(0.7071 -0.7071 0.7071 0.7071 -24.8595 113.4555)" class="st4" width="1.7" height="119.5"></rect> <rect x="121" y="28.8" transform="matrix(0.7071 -0.7071 0.7071 0.7071 -26.6839 112.6999)" class="st3" width="3.4" height="119.5"></rect> </g> <g class="st2"> <rect x="124.4" y="24.5" transform="matrix(0.7071 -0.7071 0.7071 0.7071 -22.4271 114.4631)" class="st3" width="5.2" height="119.5"></rect> <rect x="124.4" y="24.5" transform="matrix(0.7071 -0.7071 0.7071 0.7071 -22.4271 114.4631)" class="st3" width="5.2" height="119.5"></rect> <rect x="127.3" y="23.3" transform="matrix(0.7071 -0.7071 0.7071 0.7071 -21.2109 114.9669)" class="st4" width="1.7" height="119.5"></rect> <rect x="124.6" y="25.1" transform="matrix(0.7071 -0.7071 0.7071 0.7071 -23.0352 114.2112)" class="st3" width="3.4" height="119.5"></rect> </g> <g class="st2"> <rect x="128" y="20.9" transform="matrix(0.7071 -0.7071 0.7071 0.7071 -18.7784 115.9744)" class="st3" width="5.2" height="119.5"></rect> <rect x="128" y="20.9" transform="matrix(0.7071 -0.7071 0.7071 0.7071 -18.7784 115.9744)" class="st3" width="5.2" height="119.5"></rect> <rect x="131" y="19.7" transform="matrix(0.7071 -0.7071 0.7071 0.7071 -17.5622 116.4782)" class="st4" width="1.7" height="119.5"></rect> <rect x="128.3" y="21.5" transform="matrix(0.7071 -0.7071 0.7071 0.7071 -19.3865 115.7225)" class="st3" width="3.4" height="119.5"></rect> </g> <g class="st2"> <rect x="131.7" y="17.2" transform="matrix(0.7071 -0.7071 0.7071 0.7071 -15.1298 117.4858)" class="st3" width="5.2" height="119.5"></rect> <rect x="131.7" y="17.2" transform="matrix(0.7071 -0.7071 0.7071 0.7071 -15.1298 117.4858)" class="st3" width="5.2" height="119.5"></rect> <rect x="134.6" y="16" transform="matrix(0.7071 -0.7071 0.7071 0.7071 -13.9135 117.9895)" class="st4" width="1.7" height="119.5"></rect> <rect x="131.9" y="17.8" transform="matrix(0.7071 -0.7071 0.7071 0.7071 -15.7379 117.2339)" class="st3" width="3.4" height="119.5"></rect> </g> <g class="st2"> <rect x="135.3" y="13.6" transform="matrix(0.7071 -0.7071 0.7071 0.7071 -11.4811 118.9971)" class="st3" width="5.2" height="119.5"></rect> <rect x="135.3" y="13.6" transform="matrix(0.7071 -0.7071 0.7071 0.7071 -11.4811 118.9971)" class="st3" width="5.2" height="119.5"></rect> <rect x="138.3" y="12.4" transform="matrix(0.7071 -0.7071 0.7071 0.7071 -10.2649 119.5009)" class="st4" width="1.7" height="119.5"></rect> <rect x="135.6" y="14.2" transform="matrix(0.7071 -0.7071 0.7071 0.7071 -12.0892 118.7452)" class="st3" width="3.4" height="119.5"></rect> </g> <g class="st2"> <rect x="139" y="9.9" transform="matrix(0.7071 -0.7071 0.7071 0.7071 -7.8324 120.5084)" class="st3" width="5.2" height="119.5"></rect> <rect x="139" y="9.9" transform="matrix(0.7071 -0.7071 0.7071 0.7071 -7.8324 120.5084)" class="st3" width="5.2" height="119.5"></rect> <rect x="141.9" y="8.7" transform="matrix(0.7071 -0.7071 0.7071 0.7071 -6.6162 121.0122)" class="st4" width="1.7" height="119.5"></rect> <rect x="139.2" y="10.5" transform="matrix(0.7071 -0.7071 0.7071 0.7071 -8.4405 120.2565)" class="st3" width="3.4" height="119.5"></rect> </g> <g class="st2"> <rect x="142.6" y="6.3" transform="matrix(0.7071 -0.7071 0.7071 0.7071 -4.1837 122.0197)" class="st3" width="5.2" height="119.5"></rect> <rect x="142.6" y="6.3" transform="matrix(0.7071 -0.7071 0.7071 0.7071 -4.1837 122.0197)" class="st3" width="5.2" height="119.5"></rect> <rect x="145.6" y="5.1" transform="matrix(0.7071 -0.7071 0.7071 0.7071 -2.9675 122.5235)" class="st4" width="1.7" height="119.5"></rect> <rect x="142.9" y="6.9" transform="matrix(0.7071 -0.7071 0.7071 0.7071 -4.7919 121.7679)" class="st3" width="3.4" height="119.5"></rect> </g> <g class="st2"> <rect x="146.3" y="2.6" transform="matrix(0.7071 -0.7071 0.7071 0.7071 -0.5351 123.5311)" class="st3" width="5.2" height="119.5"></rect> <rect x="146.3" y="2.6" transform="matrix(0.7071 -0.7071 0.7071 0.7071 -0.5351 123.5311)" class="st3" width="5.2" height="119.5"></rect> <rect x="149.2" y="1.4" transform="matrix(0.7071 -0.7071 0.7071 0.7071 0.6812 124.0349)" class="st4" width="1.7" height="119.5"></rect> <rect x="146.5" y="3.2" transform="matrix(0.7071 -0.7071 0.7071 0.7071 -1.1432 123.2792)" class="st3" width="3.4" height="119.5"></rect> </g> <g class="st2"> <rect x="149.9" y="-1" transform="matrix(0.7071 -0.7071 0.7071 0.7071 3.1136 125.0424)" class="st3" width="5.2" height="119.5"></rect> <rect x="149.9" y="-1" transform="matrix(0.7071 -0.7071 0.7071 0.7071 3.1136 125.0424)" class="st3" width="5.2" height="119.5"></rect> <rect x="152.9" y="-2.2" transform="matrix(0.7071 -0.7071 0.7071 0.7071 4.3298 125.5462)" class="st4" width="1.7" height="119.5"></rect> <rect x="150.2" y="-0.4" transform="matrix(0.7071 -0.7071 0.7071 0.7071 2.5055 124.7905)" class="st3" width="3.4" height="119.5"></rect> </g> <g class="st2"> <rect x="153.6" y="-4.7" transform="matrix(0.7071 -0.7071 0.7071 0.7071 6.7623 126.5537)" class="st3" width="5.2" height="119.5"></rect> <rect x="153.6" y="-4.7" transform="matrix(0.7071 -0.7071 0.7071 0.7071 6.7623 126.5537)" class="st3" width="5.2" height="119.5"></rect> <rect x="156.5" y="-5.9" transform="matrix(0.7071 -0.7071 0.7071 0.7071 7.9785 127.0575)" class="st4" width="1.7" height="119.5"></rect> <rect x="153.8" y="-4" transform="matrix(0.7071 -0.7071 0.7071 0.7071 6.1542 126.3018)" class="st3" width="3.4" height="119.5"></rect> </g> <g class="st2"> <rect x="157.2" y="-8.3" transform="matrix(0.7071 -0.7071 0.7071 0.7071 10.4109 128.0651)" class="st3" width="5.2" height="119.5"></rect> <rect x="157.2" y="-8.3" transform="matrix(0.7071 -0.7071 0.7071 0.7071 10.4109 128.0651)" class="st3" width="5.2" height="119.5"></rect> <rect x="160.1" y="-9.5" transform="matrix(0.7071 -0.7071 0.7071 0.7071 11.6272 128.5688)" class="st4" width="1.7" height="119.5"></rect> <rect x="157.5" y="-7.7" transform="matrix(0.7071 -0.7071 0.7071 0.7071 9.8028 127.8132)" class="st3" width="3.4" height="119.5"></rect> </g> <g class="st2"> <rect x="160.9" y="-12" transform="matrix(0.7071 -0.7071 0.7071 0.7071 14.0596 129.5764)" class="st3" width="5.2" height="119.5"></rect> <rect x="160.9" y="-12" transform="matrix(0.7071 -0.7071 0.7071 0.7071 14.0596 129.5764)" class="st3" width="5.2" height="119.5"></rect> <rect x="163.8" y="-13.2" transform="matrix(0.7071 -0.7071 0.7071 0.7071 15.2758 130.0802)" class="st4" width="1.7" height="119.5"></rect> <rect x="161.1" y="-11.3" transform="matrix(0.7071 -0.7071 0.7071 0.7071 13.4515 129.3245)" class="st3" width="3.4" height="119.5"></rect> </g> <g class="st2"> <rect x="164.5" y="-15.6" transform="matrix(0.7071 -0.7071 0.7071 0.7071 17.7083 131.0877)" class="st3" width="5.2" height="119.5"></rect> <rect x="164.5" y="-15.6" transform="matrix(0.7071 -0.7071 0.7071 0.7071 17.7083 131.0877)" class="st3" width="5.2" height="119.5"></rect> <rect x="167.4" y="-16.8" transform="matrix(0.7071 -0.7071 0.7071 0.7071 18.9245 131.5915)" class="st4" width="1.7" height="119.5"></rect> <rect x="164.8" y="-15" transform="matrix(0.7071 -0.7071 0.7071 0.7071 17.1002 130.8358)" class="st3" width="3.4" height="119.5"></rect> </g> <g class="st2"> <rect x="168.2" y="-19.3" transform="matrix(0.7071 -0.7071 0.7071 0.7071 21.357 132.599)" class="st3" width="5.2" height="119.5"></rect> <rect x="168.2" y="-19.3" transform="matrix(0.7071 -0.7071 0.7071 0.7071 21.357 132.599)" class="st3" width="5.2" height="119.5"></rect> <rect x="171.1" y="-20.5" transform="matrix(0.7071 -0.7071 0.7071 0.7071 22.5732 133.1028)" class="st4" width="1.7" height="119.5"></rect> <rect x="168.4" y="-18.6" transform="matrix(0.7071 -0.7071 0.7071 0.7071 20.7488 132.3472)" class="st3" width="3.4" height="119.5"></rect> </g> <g class="st2"> <rect x="171.8" y="-22.9" transform="matrix(0.7071 -0.7071 0.7071 0.7071 25.0056 134.1104)" class="st3" width="5.2" height="119.5"></rect> <rect x="171.8" y="-22.9" transform="matrix(0.7071 -0.7071 0.7071 0.7071 25.0056 134.1104)" class="st3" width="5.2" height="119.5"></rect> <rect x="174.7" y="-24.1" transform="matrix(0.7071 -0.7071 0.7071 0.7071 26.2219 134.6142)" class="st4" width="1.7" height="119.5"></rect> <rect x="172.1" y="-22.3" transform="matrix(0.7071 -0.7071 0.7071 0.7071 24.3975 133.8585)" class="st3" width="3.4" height="119.5"></rect> </g> </g> </g> </g> </g> <g> <g> <defs> <path id="SVGID_5_" d="M96.7,244.8H191c6.8,0,12.3-5.5,12.4-12.4l0,0c0-6.8-5.5-12.3-12.4-12.3H96.7h3.1c5,0,9.2,5.5,9.2,12.3 l0,0c0,6.8-4.1,12.3-9.2,12.3"></path> </defs> <clipPath id="SVGID_6_"> <use xlink:href="#SVGID_5_" style="overflow:visible;"></use> </clipPath> <g class="st5"> <rect x="122.1" y="207.4" transform="matrix(0.7071 -0.7071 0.7071 0.7071 -159.1815 169.5668)" class="st3" width="6" height="139"></rect> <rect x="122.1" y="207.4" transform="matrix(0.7071 -0.7071 0.7071 0.7071 -159.1815 169.5668)" class="st3" width="6" height="139"></rect> <rect x="125.5" y="206" transform="matrix(0.7071 -0.7071 0.7071 0.7071 -157.7673 170.1526)" class="st4" width="2" height="139"></rect> <rect x="122.4" y="208.1" transform="matrix(0.7071 -0.7071 0.7071 0.7071 -159.8886 169.2739)" class="st3" width="4" height="139"></rect> </g> <g class="st5"> <rect x="126.3" y="203.2" transform="matrix(0.7071 -0.7071 0.7071 0.7071 -154.9389 171.3242)" class="st3" width="6" height="139"></rect> <rect x="126.3" y="203.2" transform="matrix(0.7071 -0.7071 0.7071 0.7071 -154.9389 171.3242)" class="st3" width="6" height="139"></rect> <rect x="129.8" y="201.8" transform="matrix(0.7071 -0.7071 0.7071 0.7071 -153.5247 171.91)" class="st4" width="2" height="139"></rect> <rect x="126.6" y="203.9" transform="matrix(0.7071 -0.7071 0.7071 0.7071 -155.646 171.0313)" class="st3" width="4" height="139"></rect> </g> <g class="st5"> <rect x="130.6" y="198.9" transform="matrix(0.7071 -0.7071 0.7071 0.7071 -150.6963 173.0815)" class="st3" width="6" height="139"></rect> <rect x="130.6" y="198.9" transform="matrix(0.7071 -0.7071 0.7071 0.7071 -150.6963 173.0815)" class="st3" width="6" height="139"></rect> <rect x="134" y="197.5" transform="matrix(0.7071 -0.7071 0.7071 0.7071 -149.282 173.6673)" class="st4" width="2" height="139"></rect> <rect x="130.9" y="199.7" transform="matrix(0.7071 -0.7071 0.7071 0.7071 -151.4034 172.7886)" class="st3" width="4" height="139"></rect> </g> <g class="st5"> <rect x="134.8" y="194.7" transform="matrix(0.7071 -0.7071 0.7071 0.7071 -146.4536 174.8389)" class="st3" width="6" height="139"></rect> <rect x="134.8" y="194.7" transform="matrix(0.7071 -0.7071 0.7071 0.7071 -146.4536 174.8389)" class="st3" width="6" height="139"></rect> <rect x="138.2" y="193.3" transform="matrix(0.7071 -0.7071 0.7071 0.7071 -145.0394 175.4247)" class="st4" width="2" height="139"></rect> <rect x="135.1" y="195.4" transform="matrix(0.7071 -0.7071 0.7071 0.7071 -147.1607 174.546)" class="st3" width="4" height="139"></rect> </g> <g class="st5"> <rect x="139.1" y="190.5" transform="matrix(0.7071 -0.7071 0.7071 0.7071 -142.211 176.5963)" class="st3" width="6" height="139"></rect> <rect x="139.1" y="190.5" transform="matrix(0.7071 -0.7071 0.7071 0.7071 -142.211 176.5963)" class="st3" width="6" height="139"></rect> <rect x="142.5" y="189" transform="matrix(0.7071 -0.7071 0.7071 0.7071 -140.7968 177.182)" class="st4" width="2" height="139"></rect> <rect x="139.4" y="191.2" transform="matrix(0.7071 -0.7071 0.7071 0.7071 -142.9181 176.3034)" class="st3" width="4" height="139"></rect> </g> <g class="st5"> <rect x="143.3" y="186.2" transform="matrix(0.7071 -0.7071 0.7071 0.7071 -137.9683 178.3536)" class="st3" width="6" height="139"></rect> <rect x="143.3" y="186.2" transform="matrix(0.7071 -0.7071 0.7071 0.7071 -137.9683 178.3536)" class="st3" width="6" height="139"></rect> <rect x="146.7" y="184.8" transform="matrix(0.7071 -0.7071 0.7071 0.7071 -136.5541 178.9394)" class="st4" width="2" height="139"></rect> <rect x="143.6" y="186.9" transform="matrix(0.7071 -0.7071 0.7071 0.7071 -138.6754 178.0607)" class="st3" width="4" height="139"></rect> </g> <g class="st5"> <rect x="147.6" y="182" transform="matrix(0.7071 -0.7071 0.7071 0.7071 -133.7257 180.111)" class="st3" width="6" height="139"></rect> <rect x="147.6" y="182" transform="matrix(0.7071 -0.7071 0.7071 0.7071 -133.7257 180.111)" class="st3" width="6" height="139"></rect> <rect x="151" y="180.6" transform="matrix(0.7071 -0.7071 0.7071 0.7071 -132.3115 180.6967)" class="st4" width="2" height="139"></rect> <rect x="147.8" y="182.7" transform="matrix(0.7071 -0.7071 0.7071 0.7071 -134.4328 179.8181)" class="st3" width="4" height="139"></rect> </g> <g class="st5"> <rect x="151.8" y="177.7" transform="matrix(0.7071 -0.7071 0.7071 0.7071 -129.4831 181.8683)" class="st3" width="6" height="139"></rect> <rect x="151.8" y="177.7" transform="matrix(0.7071 -0.7071 0.7071 0.7071 -129.4831 181.8683)" class="st3" width="6" height="139"></rect> <rect x="155.2" y="176.3" transform="matrix(0.7071 -0.7071 0.7071 0.7071 -128.0688 182.4541)" class="st4" width="2" height="139"></rect> <rect x="152.1" y="178.4" transform="matrix(0.7071 -0.7071 0.7071 0.7071 -130.1902 181.5754)" class="st3" width="4" height="139"></rect> </g> <g class="st5"> <rect x="156" y="173.5" transform="matrix(0.7071 -0.7071 0.7071 0.7071 -125.2404 183.6257)" class="st3" width="6" height="139"></rect> <rect x="156" y="173.5" transform="matrix(0.7071 -0.7071 0.7071 0.7071 -125.2404 183.6257)" class="st3" width="6" height="139"></rect> <rect x="159.4" y="172.1" transform="matrix(0.7071 -0.7071 0.7071 0.7071 -123.8262 184.2115)" class="st4" width="2" height="139"></rect> <rect x="156.3" y="174.2" transform="matrix(0.7071 -0.7071 0.7071 0.7071 -125.9475 183.3328)" class="st3" width="4" height="139"></rect> </g> <g class="st5"> <rect x="160.3" y="169.2" transform="matrix(0.7071 -0.7071 0.7071 0.7071 -120.9978 185.383)" class="st3" width="6" height="139"></rect> <rect x="160.3" y="169.2" transform="matrix(0.7071 -0.7071 0.7071 0.7071 -120.9978 185.383)" class="st3" width="6" height="139"></rect> <rect x="163.7" y="167.8" transform="matrix(0.7071 -0.7071 0.7071 0.7071 -119.5836 185.9688)" class="st4" width="2" height="139"></rect> <rect x="160.6" y="170" transform="matrix(0.7071 -0.7071 0.7071 0.7071 -121.7049 185.0901)" class="st3" width="4" height="139"></rect> </g> <g class="st5"> <rect x="164.5" y="165" transform="matrix(0.7071 -0.7071 0.7071 0.7071 -116.7551 187.1404)" class="st3" width="6" height="139"></rect> <rect x="164.5" y="165" transform="matrix(0.7071 -0.7071 0.7071 0.7071 -116.7551 187.1404)" class="st3" width="6" height="139"></rect> <rect x="167.9" y="163.6" transform="matrix(0.7071 -0.7071 0.7071 0.7071 -115.3409 187.7262)" class="st4" width="2" height="139"></rect> <rect x="164.8" y="165.7" transform="matrix(0.7071 -0.7071 0.7071 0.7071 -117.4622 186.8475)" class="st3" width="4" height="139"></rect> </g> <g class="st5"> <rect x="168.8" y="160.8" transform="matrix(0.7071 -0.7071 0.7071 0.7071 -112.5125 188.8978)" class="st3" width="6" height="139"></rect> <rect x="168.8" y="160.8" transform="matrix(0.7071 -0.7071 0.7071 0.7071 -112.5125 188.8978)" class="st3" width="6" height="139"></rect> <rect x="172.2" y="159.3" transform="matrix(0.7071 -0.7071 0.7071 0.7071 -111.0983 189.4836)" class="st4" width="2" height="139"></rect> <rect x="169.1" y="161.5" transform="matrix(0.7071 -0.7071 0.7071 0.7071 -113.2196 188.6049)" class="st3" width="4" height="139"></rect> </g> <g class="st5"> <rect x="173" y="156.5" transform="matrix(0.7071 -0.7071 0.7071 0.7071 -108.2699 190.6551)" class="st3" width="6" height="139"></rect> <rect x="173" y="156.5" transform="matrix(0.7071 -0.7071 0.7071 0.7071 -108.2699 190.6551)" class="st3" width="6" height="139"></rect> <rect x="176.4" y="155.1" transform="matrix(0.7071 -0.7071 0.7071 0.7071 -106.8556 191.2409)" class="st4" width="2" height="139"></rect> <rect x="173.3" y="157.2" transform="matrix(0.7071 -0.7071 0.7071 0.7071 -108.977 190.3622)" class="st3" width="4" height="139"></rect> </g> <g class="st5"> <rect x="177.2" y="152.3" transform="matrix(0.7071 -0.7071 0.7071 0.7071 -104.0272 192.4125)" class="st3" width="6" height="139"></rect> <rect x="177.2" y="152.3" transform="matrix(0.7071 -0.7071 0.7071 0.7071 -104.0272 192.4125)" class="st3" width="6" height="139"></rect> <rect x="180.7" y="150.9" transform="matrix(0.7071 -0.7071 0.7071 0.7071 -102.613 192.9983)" class="st4" width="2" height="139"></rect> <rect x="177.5" y="153" transform="matrix(0.7071 -0.7071 0.7071 0.7071 -104.7343 192.1196)" class="st3" width="4" height="139"></rect> </g> <g class="st5"> <rect x="181.5" y="148" transform="matrix(0.7071 -0.7071 0.7071 0.7071 -99.7846 194.1698)" class="st3" width="6" height="139"></rect> <rect x="181.5" y="148" transform="matrix(0.7071 -0.7071 0.7071 0.7071 -99.7846 194.1698)" class="st3" width="6" height="139"></rect> <rect x="184.9" y="146.6" transform="matrix(0.7071 -0.7071 0.7071 0.7071 -98.3704 194.7556)" class="st4" width="2" height="139"></rect> <rect x="181.8" y="148.7" transform="matrix(0.7071 -0.7071 0.7071 0.7071 -100.4917 193.877)" class="st3" width="4" height="139"></rect> </g> <g class="st5"> <rect x="185.7" y="143.8" transform="matrix(0.7071 -0.7071 0.7071 0.7071 -95.5419 195.9272)" class="st3" width="6" height="139"></rect> <rect x="185.7" y="143.8" transform="matrix(0.7071 -0.7071 0.7071 0.7071 -95.5419 195.9272)" class="st3" width="6" height="139"></rect> <rect x="189.1" y="142.4" transform="matrix(0.7071 -0.7071 0.7071 0.7071 -94.1277 196.513)" class="st4" width="2" height="139"></rect> <rect x="186" y="144.5" transform="matrix(0.7071 -0.7071 0.7071 0.7071 -96.249 195.6343)" class="st3" width="4" height="139"></rect> </g> <g class="st5"> <rect x="190" y="139.6" transform="matrix(0.7071 -0.7071 0.7071 0.7071 -91.2993 197.6846)" class="st3" width="6" height="139"></rect> <rect x="190" y="139.6" transform="matrix(0.7071 -0.7071 0.7071 0.7071 -91.2993 197.6846)" class="st3" width="6" height="139"></rect> <rect x="193.4" y="138.1" transform="matrix(0.7071 -0.7071 0.7071 0.7071 -89.8851 198.2703)" class="st4" width="2" height="139"></rect> <rect x="190.3" y="140.3" transform="matrix(0.7071 -0.7071 0.7071 0.7071 -92.0064 197.3917)" class="st3" width="4" height="139"></rect> </g> </g> </g> </g> <g id="Illustration-2"> <g> <defs> <rect id="SVGID_7_" x="64" y="52" width="172" height="106.2"></rect> </defs> <clipPath id="SVGID_8_"> <use xlink:href="#SVGID_7_" style="overflow:visible;"></use> </clipPath> <g class="st6"> <g> <path class="st0" d="M216.6,169.3H84.2c-4.5,0-8.2-3.7-8.2-8.2V70.7c0-4.5,3.7-8.2,8.2-8.2h132.4c4.5,0,8.2,3.7,8.2,8.2V161 C224.9,165.6,221.2,169.3,216.6,169.3z M84.2,66.5c-2.3,0-4.2,1.9-4.2,4.2V161c0,2.3,1.9,4.2,4.2,4.2h132.4 c2.3,0,4.2-1.9,4.2-4.2V70.7c0-2.3-1.9-4.2-4.2-4.2H84.2z"></path> </g> </g> </g> <g> <path class="st0" d="M215.7,151.6H85.2V75.4h130.5V151.6z M89.2,147.6h122.5V79.4H89.2V147.6z"></path> </g> <g> <path class="st0" d="M96.7,246.8v-4h3.1v-0.1c3.9,0,7.2-4.7,7.2-10.3c0-5.6-3.3-10.3-7.2-10.3h-3.1v-4H191 c7.9,0,14.3,6.5,14.3,14.3c0,7.9-6.5,14.3-14.3,14.4H96.7z M107.5,242.8H191c5.7,0,10.3-4.7,10.3-10.4c0-5.7-4.7-10.3-10.4-10.3 h-83.5c2.1,2.6,3.4,6.3,3.4,10.3C111,236.5,109.6,240.2,107.5,242.8z"></path> </g> <g> <path class="st0" d="M200.2,210.3c-6.2,0-11.2-6.4-11.2-14.3c0-7.9,5-14.3,11.2-14.3v4c-3.9,0-7.2,4.7-7.2,10.3 c0,5.6,3.3,10.3,7.2,10.3V210.3z"></path> </g> <g> <path class="st0" d="M203.3,210.4H109c-7.9,0-14.3-6.5-14.3-14.4c0-7.9,6.5-14.3,14.3-14.3h94.3v4H109c-5.7,0-10.3,4.7-10.3,10.3 c0,5.7,4.6,10.3,10.3,10.4h94.3V210.4z"></path> </g> <g> <polygon class="st0" points="133.4,130.9 102.8,114.2 133.4,97.6 135.3,101.1 111.2,114.2 135.3,127.4 "></polygon> </g> <g> <polygon class="st0" points="167.6,130.9 165.7,127.4 189.8,114.2 165.7,101.1 167.6,97.6 198.2,114.2 "></polygon> </g> <g> <rect x="127.1" y="112.3" transform="matrix(0.4258 -0.9048 0.9048 0.4258 -16.9579 201.7781)" class="st0" width="46.7" height="4"></rect> </g> <g> <path class="st0" d="M228.3,172.3H71.7c-5.6,0-10.2-4.6-10.2-10.1c0-3.2,2.6-5.9,5.9-5.9h165.1c3.2,0,5.9,2.6,5.9,5.9 C238.5,167.7,233.9,172.3,228.3,172.3z M67.4,160.2c-1,0-1.9,0.8-1.9,1.9c0,3.4,2.8,6.1,6.2,6.1h156.6c3.4,0,6.2-2.8,6.2-6.1 c0-1-0.8-1.9-1.9-1.9H67.4z"></path> </g> </g> </g> </svg> 